<svg width="1077" height="408" viewBox="0 0 1077 408" fill="none" xmlns="http://www.w3.org/2000/svg">
<g clip-path="url(#clip0_1_793)">
<rect x="750" y="1" width="326" height="404" fill="white"/>
<path d="M845.739 44.25C842.114 44.25 839.239 41.375 839.239 37.875C839.239 34.375 842.114 31.5 845.614 31.5C848.989 31.5 851.739 34.25 851.739 37.625C851.739 38.5 851.614 39.125 851.614 39.125H842.739C843.114 40.25 844.114 41.25 845.989 41.25C848.114 41.25 849.239 39.875 849.239 39.875L850.989 42.25C850.989 42.25 849.114 44.25 845.739 44.25ZM842.739 36.625H848.239C847.864 35.5 846.864 34.5 845.489 34.5C844.114 34.5 843.114 35.5 842.739 36.625ZM851.752 44L856.127 37.75L852.002 31.75H855.877L858.202 35.5H858.302L860.627 31.75H864.502L860.377 37.75L864.752 44H860.877L858.302 40H858.202L855.627 44H851.752ZM868.627 44.25C866.377 44.25 864.877 42.75 864.877 40.75C864.877 38.75 866.252 37.225 868.502 36.825L872.377 36.125C872.252 35.25 871.502 34.5 870.252 34.5C868.502 34.5 867.502 35.875 867.502 35.875L865.502 33.875C865.502 33.875 867.252 31.5 870.502 31.5C873.627 31.5 875.752 33.625 875.752 36.375V44C875.752 44 873.127 44 872.377 44V42.5H872.252C872.252 42.5 871.002 44.25 868.627 44.25ZM869.752 41.5C871.252 41.5 872.377 40.375 872.377 38.75V38.5L869.627 39C868.752 39.15 868.252 39.625 868.252 40.25C868.252 41 868.752 41.5 869.752 41.5ZM878.503 44V31.75H881.878V33.5H882.003C882.003 33.5 883.003 31.5 885.378 31.5C888.003 31.5 889.003 33.625 889.003 33.625H889.128C889.128 33.625 890.503 31.5 893.128 31.5C895.503 31.5 897.378 33.375 897.378 36.375V44H894.003V36.875C894.003 35.5 893.253 34.75 892.003 34.75C890.628 34.75 889.628 35.75 889.628 37.25V44H886.253V36.875C886.253 35.5 885.503 34.75 884.253 34.75C882.878 34.75 881.878 35.75 881.878 37.25V44H878.503ZM900.123 49.25V31.75H903.498V33.5H903.623C903.623 33.5 904.873 31.5 907.498 31.5C910.373 31.5 912.998 34.125 912.998 37.875C912.998 41.625 910.373 44.25 907.498 44.25C904.873 44.25 903.623 42.25 903.623 42.25H903.498V49.25H900.123ZM906.498 41.125C908.248 41.125 909.623 39.75 909.623 37.875C909.623 36 908.248 34.625 906.498 34.625C904.748 34.625 903.373 36 903.373 37.875C903.373 39.75 904.748 41.125 906.498 41.125ZM915.128 44V26.5H918.503V44H915.128ZM927.138 44.25C923.513 44.25 920.638 41.375 920.638 37.875C920.638 34.375 923.513 31.5 927.013 31.5C930.388 31.5 933.138 34.25 933.138 37.625C933.138 38.5 933.013 39.125 933.013 39.125H924.138C924.513 40.25 925.513 41.25 927.388 41.25C929.513 41.25 930.638 39.875 930.638 39.875L932.388 42.25C932.388 42.25 930.513 44.25 927.138 44.25ZM924.138 36.625H929.638C929.263 35.5 928.263 34.5 926.888 34.5C925.513 34.5 924.513 35.5 924.138 36.625ZM936.521 44.25C935.396 44.25 934.521 43.375 934.521 42.25C934.521 41.125 935.396 40.25 936.521 40.25C937.646 40.25 938.521 41.125 938.521 42.25C938.521 43.375 937.646 44.25 936.521 44.25ZM946.402 44.25C942.777 44.25 939.902 41.375 939.902 37.875C939.902 34.375 942.777 31.5 946.402 31.5C949.902 31.5 951.527 34 951.527 34L949.402 36.125C949.402 36.125 948.277 34.625 946.402 34.625C944.652 34.625 943.277 36 943.277 37.875C943.277 39.75 944.652 41.125 946.402 41.125C948.277 41.125 949.402 39.625 949.402 39.625L951.527 41.75C951.527 41.75 949.902 44.25 946.402 44.25ZM958.646 44.25C955.021 44.25 952.146 41.375 952.146 37.875C952.146 34.375 955.021 31.5 958.646 31.5C962.271 31.5 965.146 34.375 965.146 37.875C965.146 41.375 962.271 44.25 958.646 44.25ZM958.646 41.125C960.396 41.125 961.771 39.75 961.771 37.875C961.771 36 960.396 34.625 958.646 34.625C956.896 34.625 955.521 36 955.521 37.875C955.521 39.75 956.896 41.125 958.646 41.125ZM967.142 44V31.75H970.517V33.5H970.642C970.642 33.5 971.642 31.5 974.017 31.5C976.642 31.5 977.642 33.625 977.642 33.625H977.767C977.767 33.625 979.142 31.5 981.767 31.5C984.142 31.5 986.017 33.375 986.017 36.375V44H982.642V36.875C982.642 35.5 981.892 34.75 980.642 34.75C979.267 34.75 978.267 35.75 978.267 37.25V44H974.892V36.875C974.892 35.5 974.142 34.75 972.892 34.75C971.517 34.75 970.517 35.75 970.517 37.25V44H967.142Z" fill="#121516"/>
<path d="M778.523 138.973C778.523 161.723 791.744 181.384 810.916 190.7L783.499 115.583C780.31 122.731 778.523 130.641 778.523 138.973ZM874.798 136.073C874.798 128.97 872.247 124.051 870.059 120.222C867.145 115.488 864.414 111.478 864.414 106.744C864.414 101.461 868.421 96.5426 874.066 96.5426C874.32 96.5426 874.562 96.5743 874.81 96.5885C864.585 87.2204 850.961 81.5007 835.998 81.5007C815.919 81.5007 798.254 91.8027 787.977 107.407C789.325 107.447 790.596 107.476 791.675 107.476C797.687 107.476 806.993 106.746 806.993 106.746C810.091 106.564 810.456 111.114 807.361 111.481C807.361 111.481 804.248 111.847 800.783 112.028L821.713 174.284L834.291 136.561L825.336 112.026C822.242 111.845 819.309 111.478 819.309 111.478C816.212 111.297 816.575 106.561 819.673 106.744C819.673 106.744 829.164 107.473 834.812 107.473C840.822 107.473 850.129 106.744 850.129 106.744C853.23 106.561 853.594 111.112 850.498 111.478C850.498 111.478 847.378 111.845 843.92 112.026L864.69 173.81L870.423 154.653C872.907 146.703 874.798 140.993 874.798 136.073ZM837.007 144.001L819.762 194.11C824.911 195.624 830.356 196.452 835.998 196.452C842.691 196.452 849.11 195.295 855.085 193.194C854.93 192.948 854.79 192.686 854.675 192.402L837.007 144.001ZM886.43 111.399C886.677 113.229 886.817 115.195 886.817 117.309C886.817 123.141 885.728 129.697 882.447 137.895L864.891 188.654C881.978 178.69 893.471 160.178 893.471 138.975C893.472 128.982 890.92 119.585 886.43 111.399ZM835.998 71.9773C799.056 71.9773 769 102.032 769 138.973C769 175.92 799.056 205.973 835.998 205.973C872.939 205.973 903 175.92 903 138.973C902.999 102.032 872.939 71.9773 835.998 71.9773ZM835.998 202.902C800.75 202.902 772.072 174.224 772.072 138.973C772.072 103.726 800.749 75.0493 835.998 75.0493C871.245 75.0493 899.921 103.726 899.921 138.973C899.921 174.224 871.245 202.902 835.998 202.902Z" fill="#464342"/>
<g clip-path="url(#clip1_1_793)">
<path d="M990.025 71.9751C1027.02 71.9875 1057 101.982 1057 138.975V139C1056.99 176 1026.98 205.988 989.975 205.975C952.975 205.963 922.988 175.95 923 138.95C923.012 101.95 953.019 71.9627 990.025 71.9751ZM989.683 89.2069C987.843 96.1692 981.639 102.354 975.143 108.851C965.427 118.592 954.38 129.613 954.38 146.167C954.405 165.637 970.17 181.42 989.639 181.47C1009.15 181.47 1024.97 165.668 1024.99 146.167C1024.99 129.613 1013.97 118.598 1004.22 108.851L1003.35 107.98C997.18 101.8 991.435 95.8634 989.683 89.2069ZM990.162 142.071C994.215 146.391 996.788 149.369 999.455 152.62C999.654 152.862 999.834 153.124 999.996 153.403C1003.26 158.109 1002.82 164.45 998.933 168.652C994.358 173.606 986.637 173.911 981.683 169.336C976.728 164.761 976.423 157.04 980.999 152.085C983.597 149.015 986.736 145.993 990.162 142.071ZM974.03 125.871L975.733 127.481L983.641 135.569C983.939 135.91 983.939 136.414 983.641 136.756L975.373 145.894L972.482 149.412C971.382 150.755 970.45 152.216 969.704 153.782C969.598 154.044 969.374 154.236 969.101 154.298H968.808C968.007 154.23 967.086 152.751 967.086 152.751L966.94 152.529C966.749 152.231 966.574 151.925 966.415 151.607L966.26 151.271C965.128 147.591 965.041 143.668 965.992 139.939L966.099 139.551C966.977 136.455 968.363 133.519 970.201 130.869C971.382 129.128 972.663 127.462 974.03 125.871ZM989.733 109.522C991.84 111.915 994.215 114.315 996.453 116.553L996.502 116.708C1001.18 121.066 1005.41 125.883 1009.13 131.087C1012.29 135.525 1014.02 140.821 1014.08 146.273C1014.08 148.629 1013.73 150.966 1013.03 153.217L1013 153.31C1012.81 153.766 1012.4 154.099 1011.91 154.18H1011.69C1011.2 154.025 1010.8 153.702 1010.55 153.26L1010.17 152.697C1008.15 149.707 1005.88 146.9 1003.38 144.303L1000.15 140.896L989.397 129.694C987.582 127.947 984.337 124.814 982.969 123.111C982.926 123.018 982.876 122.931 982.814 122.844C982.441 122.334 982.155 121.768 981.962 121.165V120.83C981.776 119.735 981.925 118.61 982.385 117.603C982.683 116.963 983.094 116.379 983.597 115.881C985.68 113.799 987.762 111.76 989.733 109.522Z" fill="#009DDE"/>
</g>
<path d="M942.048 225.975C941.056 225.975 940.076 226.188 939.17 226.596C938.683 226.748 938.111 226.985 937.472 227.332C935.865 228.196 933.808 229.706 932.092 231.83C930.369 233.954 928.982 236.692 928.203 238.676C928.184 238.725 928.166 238.768 928.148 238.816C923.912 235.36 918.611 233.467 913.146 233.467C913.128 233.467 913.116 233.467 913.097 233.467C900.019 233.491 889.423 244.105 889.423 257.184C889.423 263.653 892.064 269.842 896.744 274.316C896.732 274.322 896.726 274.322 896.72 274.328C895.369 275.082 892.831 276.647 891.261 278.326C889.697 280.006 889.107 281.789 888.985 283.572C888.863 285.356 889.216 287.127 890.409 288.697C891.602 290.267 893.629 291.642 895.247 292.531C895.692 292.774 896.106 292.981 896.495 293.158C894.377 294.131 891.523 295.659 889.575 297.71C887.622 299.767 886.581 302.341 886.143 304.587C885.705 306.833 885.863 308.756 886.368 310.576C886.879 312.395 887.737 314.112 889.204 315.724C890.671 317.337 892.752 318.852 894.876 319.991C897 321.129 899.167 321.902 901.583 322.522C903.999 323.143 906.665 323.618 910.462 323.739C914.26 323.861 919.183 323.636 923.437 322.936C927.698 322.236 931.288 321.062 934.38 319.358C937.472 317.654 940.07 315.414 941.72 312.931C943.369 310.448 944.069 307.715 944.215 304.922C944.361 302.134 943.953 299.286 942.474 296.803C940.995 294.32 938.445 292.196 935.043 290.717C931.641 289.238 927.399 288.405 921.843 288.027C916.286 287.656 909.421 287.747 905.332 287.589C901.242 287.431 899.934 287.023 898.862 286.427C897.791 285.83 896.951 285.039 896.525 284.144C896.099 283.25 896.075 282.258 896.312 281.333C896.55 280.408 897.049 279.55 898.333 278.643C898.978 278.192 899.824 277.724 900.579 277.286C904.346 279.641 908.703 280.888 913.146 280.888C926.243 280.888 936.863 270.268 936.863 257.172C936.863 251.36 934.733 245.754 930.868 241.415C930.972 241.196 931.087 240.971 931.233 240.727C931.787 239.79 932.718 238.646 933.473 238.037C933.771 237.794 935.019 237.368 935.792 237.538C936.972 237.8 937.831 238.841 938.591 239.236C939.851 239.888 941.19 240.107 942.06 240.107C945.961 240.107 949.126 236.942 949.126 233.041C949.126 229.14 945.961 225.975 942.06 225.975C942.054 225.975 942.048 225.975 942.048 225.975ZM913.03 241.08C913.037 241.08 913.043 241.08 913.049 241.08C922.074 241.08 929.389 248.396 929.389 257.421C929.389 266.447 922.074 273.762 913.049 273.762C904.023 273.762 896.708 266.447 896.708 257.421C896.708 248.402 904.017 241.093 913.03 241.08ZM902.484 295.02C903.384 295.19 904.461 295.343 905.831 295.458C909.105 295.738 914.022 295.817 917.881 295.927C921.739 296.036 924.533 296.182 927.223 296.773C929.913 297.363 932.493 298.398 934.015 299.712C935.53 301.033 935.987 302.633 936.096 304.112C936.206 305.591 935.98 306.948 934.629 308.652C933.272 310.357 930.789 312.414 927.016 313.692C923.243 314.97 918.185 315.463 913.803 315.444C909.421 315.42 905.715 314.878 902.995 314.099C900.274 313.32 898.534 312.304 897.237 311.05C895.941 309.797 895.083 308.306 894.833 306.748C894.584 305.19 894.949 303.565 895.43 302.244C895.917 300.923 896.525 299.907 897.724 298.775C898.923 297.643 900.706 296.401 901.924 295.464C902.124 295.312 902.313 295.16 902.484 295.02Z" fill="#222222"/>
<path d="M920.473 258.06C922.85 258.06 924.776 256.134 924.776 253.757C924.776 251.381 922.85 249.455 920.473 249.455C918.097 249.455 916.171 251.381 916.171 253.757C916.171 256.134 918.097 258.06 920.473 258.06Z" fill="#222222"/>
<path d="M864.684 346.513V358.606H862.268C862.091 357.754 861.836 356.889 861.507 356.007C859.894 357.973 857.843 358.953 855.342 358.953C852.396 358.953 850.096 357.9 848.453 355.788C846.816 353.676 846 350.95 846 347.602C846 343.999 846.87 341.109 848.617 338.924C850.376 336.739 852.755 335.643 855.756 335.643C858.275 335.643 860.308 336.349 861.854 337.761C863.4 339.173 864.343 341.06 864.684 343.409L859.651 344.072C859.243 341.334 857.947 339.964 855.756 339.964C854.319 339.964 853.23 340.616 852.494 341.918C851.763 343.208 851.398 345.058 851.398 347.468C851.398 349.787 851.794 351.558 852.591 352.788C853.388 354.017 854.52 354.626 855.987 354.626C856.936 354.626 857.782 354.315 858.519 353.7C859.267 353.08 859.645 352.094 859.645 350.737H855.391V346.513H864.684Z" fill="#2B72B9"/>
<path d="M882.71 351.065H871.944C871.932 351.363 871.926 351.625 871.926 351.844C871.926 353.037 872.243 353.938 872.869 354.546C873.508 355.155 874.269 355.459 875.158 355.459C876.801 355.459 877.793 354.583 878.122 352.824L882.595 353.153C881.347 357.017 878.815 358.953 874.993 358.953C873.326 358.953 871.908 358.624 870.739 357.961C869.577 357.285 868.621 356.311 867.855 355.027C867.106 353.749 866.729 352.209 866.729 350.42C866.729 347.761 867.483 345.612 868.999 343.975C870.52 342.338 872.48 341.523 874.866 341.523C877.02 341.523 878.864 342.283 880.398 343.811C881.937 345.326 882.71 347.742 882.71 351.065ZM871.926 348.199H877.872C877.72 345.904 876.771 344.754 875.042 344.754C873.186 344.754 872.151 345.904 871.926 348.199Z" fill="#2B72B9"/>
<path d="M891.827 341.523C894.377 341.523 896.367 342.356 897.791 344.024C899.228 345.691 899.946 347.779 899.946 350.286C899.946 352.757 899.203 354.826 897.712 356.482C896.233 358.125 894.261 358.953 891.797 358.953C889.411 358.953 887.5 358.137 886.064 356.5C884.64 354.863 883.928 352.769 883.928 350.207C883.928 348.43 884.25 346.921 884.889 345.685C885.54 344.438 886.429 343.434 887.555 342.673C888.681 341.906 890.105 341.523 891.827 341.523ZM891.961 344.754C891.024 344.754 890.318 345.119 889.843 345.85C889.368 346.568 889.131 348.004 889.131 350.158C889.131 352.136 889.356 353.554 889.813 354.412C890.263 355.277 890.975 355.703 891.931 355.703C892.77 355.703 893.446 355.338 893.969 354.607C894.487 353.865 894.748 352.465 894.748 350.402C894.748 348.205 894.517 346.714 894.055 345.929C893.598 345.15 892.898 344.754 891.961 344.754Z" fill="#2B72B9"/>
<path d="M920.577 344.407L915.027 344.754C914.947 341.565 913.706 339.965 911.302 339.965C908.539 339.965 907.164 342.423 907.164 347.335C907.164 350.171 907.541 352.1 908.29 353.116C909.038 354.12 910.091 354.626 911.436 354.626C913.621 354.626 914.96 353.201 915.447 350.353L920.583 350.67C920.254 353.378 919.244 355.435 917.552 356.847C915.873 358.247 913.816 358.953 911.375 358.953C908.381 358.953 905.946 357.918 904.072 355.855C902.204 353.792 901.272 350.937 901.272 347.292C901.272 343.878 902.179 341.084 903.987 338.912C905.8 336.739 908.271 335.65 911.406 335.65C916.834 335.644 919.895 338.565 920.577 344.407Z" fill="#7FC348"/>
<path d="M927.393 341.875V358.606H922.457V341.875H927.393ZM927.393 335.528V340.464H922.457V335.528H927.393Z" fill="#7FC348"/>
<path d="M936.066 345.716V352.788C936.066 353.67 936.2 354.26 936.461 354.559C936.729 354.857 937.35 355.003 938.336 355.003C938.786 355.003 939.316 354.978 939.912 354.936V358.6C938.476 358.843 937.441 358.965 936.814 358.965C934.757 358.965 933.303 358.575 932.438 357.79C931.574 356.993 931.148 355.563 931.148 353.5V345.716H928.501V341.875H931.434L931.83 336.94L936.072 336.611V341.882H939.681V345.722L936.066 345.716Z" fill="#7FC348"/>
<path d="M946.442 341.875V358.606H941.506V341.875H946.442ZM946.442 335.528V340.464H941.506V335.528H946.442Z" fill="#7FC348"/>
<path d="M964.59 351.065H953.824C953.812 351.363 953.806 351.625 953.806 351.844C953.806 353.037 954.123 353.938 954.75 354.546C955.389 355.155 956.149 355.459 957.038 355.459C958.681 355.459 959.673 354.583 960.002 352.824L964.475 353.153C963.227 357.017 960.695 358.953 956.873 358.953C955.206 358.953 953.788 358.624 952.619 357.961C951.457 357.285 950.502 356.311 949.735 355.027C948.986 353.749 948.609 352.209 948.609 350.42C948.609 347.761 949.363 345.612 950.879 343.975C952.4 342.338 954.36 341.523 956.746 341.523C958.9 341.523 960.744 342.283 962.278 343.811C963.818 345.326 964.59 347.742 964.59 351.065ZM953.806 348.199H959.752C959.6 345.904 958.651 344.754 956.922 344.754C955.066 344.754 954.025 345.904 953.806 348.199Z" fill="#7FC348"/>
<path d="M979.288 345.917L975.691 346.878C975.271 345.363 974.182 344.608 972.429 344.608C970.774 344.608 969.946 345.113 969.946 346.117C969.946 346.513 970.092 346.836 970.39 347.079C970.701 347.31 971.492 347.511 972.776 347.675C974.687 347.931 976.099 348.223 977.018 348.552C977.937 348.88 978.655 349.44 979.191 350.225C979.732 351.01 980 351.978 980 353.122C980 354.845 979.343 356.25 978.028 357.328C976.726 358.411 974.9 358.953 972.545 358.953C968.285 358.953 965.735 357.303 964.907 353.999L969.064 353.384C969.404 354.887 970.64 355.636 972.776 355.636C973.592 355.636 974.285 355.49 974.845 355.204C975.411 354.905 975.691 354.51 975.691 354.011C975.691 353.238 975.064 352.781 973.817 352.635C970.439 352.216 968.212 351.57 967.14 350.7C966.081 349.818 965.552 348.588 965.552 347.024C965.552 345.436 966.173 344.121 967.408 343.08C968.644 342.04 970.378 341.523 972.612 341.523C974.377 341.523 975.795 341.869 976.854 342.563C977.912 343.257 978.728 344.383 979.288 345.917Z" fill="#7FC348"/>
<rect x="750" y="1" width="326" height="404" stroke="#121516" stroke-width="2" stroke-dasharray="4 4"/>
<rect x="1" y="1" width="212" height="406.311" fill="white"/>
<path d="M57.8633 45.375C53.3633 45.375 51.1133 42.625 51.1133 42.625L53.6133 40.125C53.6133 40.125 55.1133 42 57.7383 42C59.7383 42 60.6133 41.125 60.6133 40C60.6133 37 51.8633 38.375 51.8633 32.25C51.8633 29.5 54.2383 27.125 58.2383 27.125C62.1133 27.125 64.1133 29.5 64.1133 29.5L61.6133 32C61.6133 32 60.3633 30.5 58.3633 30.5C56.4883 30.5 55.7383 31.25 55.7383 32.25C55.7383 35.25 64.4883 33.875 64.4883 40C64.4883 42.875 61.9883 45.375 57.8633 45.375ZM71.4873 45.25C68.9873 45.25 67.3623 43.625 67.3623 40.75V36.125H65.2373V33H66.3623C67.2373 33 67.7373 32.5 67.7373 31.5V29.25H70.7373V33H73.4873V36.125H70.7373V40.25C70.7373 41.375 71.3623 42 72.3623 42C73.1123 42 73.7373 41.75 73.7373 41.75V44.875C73.7373 44.875 72.7373 45.25 71.4873 45.25ZM78.7529 45.25C76.5029 45.25 75.0029 43.75 75.0029 41.75C75.0029 39.75 76.3779 38.225 78.6279 37.825L82.5029 37.125C82.3779 36.25 81.6279 35.5 80.3779 35.5C78.6279 35.5 77.6279 36.875 77.6279 36.875L75.6279 34.875C75.6279 34.875 77.3779 32.5 80.6279 32.5C83.7529 32.5 85.8779 34.625 85.8779 37.375V45C85.8779 45 83.2529 45 82.5029 45V43.5H82.3779C82.3779 43.5 81.1279 45.25 78.7529 45.25ZM79.8779 42.5C81.3779 42.5 82.5029 41.375 82.5029 39.75V39.5L79.7529 40C78.8779 40.15 78.3779 40.625 78.3779 41.25C78.3779 42 78.8779 42.5 79.8779 42.5ZM93.5098 45.25C91.0098 45.25 89.3848 43.625 89.3848 40.75V36.125H87.2598V33H88.3848C89.2598 33 89.7598 32.5 89.7598 31.5V29.25H92.7598V33H95.5098V36.125H92.7598V40.25C92.7598 41.375 93.3848 42 94.3848 42C95.1348 42 95.7598 41.75 95.7598 41.75V44.875C95.7598 44.875 94.7598 45.25 93.5098 45.25ZM97.8945 45V32.75H101.27V45H97.8945ZM99.5695 31.125C98.5195 31.125 97.6445 30.25 97.6445 29.25C97.6445 28.25 98.5195 27.375 99.5945 27.375C100.645 27.375 101.52 28.25 101.52 29.25C101.52 30.25 100.645 31.125 99.5695 31.125ZM109.761 45.25C106.136 45.25 103.261 42.375 103.261 38.875C103.261 35.375 106.136 32.5 109.761 32.5C113.261 32.5 114.886 35 114.886 35L112.761 37.125C112.761 37.125 111.636 35.625 109.761 35.625C108.011 35.625 106.636 37 106.636 38.875C106.636 40.75 108.011 42.125 109.761 42.125C111.636 42.125 112.761 40.625 112.761 40.625L114.886 42.75C114.886 42.75 113.261 45.25 109.761 45.25ZM126.873 45.375C122.373 45.375 120.123 42.625 120.123 42.625L122.623 40.125C122.623 40.125 124.123 42 126.748 42C128.748 42 129.623 41.125 129.623 40C129.623 37 120.873 38.375 120.873 32.25C120.873 29.5 123.248 27.125 127.248 27.125C131.123 27.125 133.123 29.5 133.123 29.5L130.623 32C130.623 32 129.373 30.5 127.373 30.5C125.498 30.5 124.748 31.25 124.748 32.25C124.748 35.25 133.498 33.875 133.498 40C133.498 42.875 130.998 45.375 126.873 45.375ZM135.372 45V32.75H138.747V45H135.372ZM137.047 31.125C135.997 31.125 135.122 30.25 135.122 29.25C135.122 28.25 135.997 27.375 137.072 27.375C138.122 27.375 138.997 28.25 138.997 29.25C138.997 30.25 138.122 31.125 137.047 31.125ZM146.613 45.25C144.113 45.25 142.488 43.625 142.488 40.75V36.125H140.363V33H141.488C142.363 33 142.863 32.5 142.863 31.5V29.25H145.863V33H148.613V36.125H145.863V40.25C145.863 41.375 146.488 42 147.488 42C148.238 42 148.863 41.75 148.863 41.75V44.875C148.863 44.875 147.863 45.25 146.613 45.25ZM156.504 45.25C152.879 45.25 150.004 42.375 150.004 38.875C150.004 35.375 152.879 32.5 156.379 32.5C159.754 32.5 162.504 35.25 162.504 38.625C162.504 39.5 162.379 40.125 162.379 40.125H153.504C153.879 41.25 154.879 42.25 156.754 42.25C158.879 42.25 160.004 40.875 160.004 40.875L161.754 43.25C161.754 43.25 159.879 45.25 156.504 45.25ZM153.504 37.625H159.004C158.629 36.5 157.629 35.5 156.254 35.5C154.879 35.5 153.879 36.5 153.504 37.625Z" fill="#121516"/>
<path d="M131.167 106.186H107L100.958 100.144H82.8334C79.5104 100.144 76.8219 102.863 76.8219 106.186L76.7917 142.436C76.7917 145.758 79.5104 148.477 82.8334 148.477H131.167C134.49 148.477 137.208 145.758 137.208 142.436V112.227C137.208 108.904 134.49 106.186 131.167 106.186ZM131.167 142.436H82.8334V112.227H131.167V142.436Z" fill="#121516"/>
<path d="M69.6341 189.311V178.111H72.0341V182.511H76.8341V178.111H79.2341V189.311H76.8341V184.751H72.0341V189.311H69.6341ZM83.8784 189.311V180.351H80.6784V178.111H89.4784V180.351H86.2784V189.311H83.8784ZM90.9159 189.311V178.111H93.0759L96.9159 182.911L100.756 178.111H102.916V189.311H100.516V181.951L96.9159 186.431L93.3159 181.951V189.311H90.9159ZM105.471 189.311V178.111H107.871V187.071H113.071V189.311H105.471ZM117.63 189.311V183.631H116.43V181.631H117.63V180.831C117.63 178.991 118.67 177.951 120.27 177.951C120.99 177.951 121.55 178.191 121.55 178.191V180.191C121.55 180.191 121.23 180.031 120.83 180.031C120.19 180.031 119.79 180.431 119.79 181.151V181.631H124.83V189.311H122.67V183.631H119.79V189.311H117.63ZM123.742 180.431C123.07 180.431 122.51 179.871 122.51 179.231C122.51 178.591 123.07 178.031 123.758 178.031C124.43 178.031 124.99 178.591 124.99 179.231C124.99 179.871 124.43 180.431 123.742 180.431ZM126.753 189.311V178.111H128.913V189.311H126.753ZM134.44 189.471C132.12 189.471 130.28 187.631 130.28 185.391C130.28 183.151 132.12 181.311 134.36 181.311C136.52 181.311 138.28 183.071 138.28 185.231C138.28 185.791 138.2 186.191 138.2 186.191H132.52C132.76 186.911 133.4 187.551 134.6 187.551C135.96 187.551 136.68 186.671 136.68 186.671L137.8 188.191C137.8 188.191 136.6 189.471 134.44 189.471ZM132.52 184.591H136.04C135.8 183.871 135.16 183.231 134.28 183.231C133.4 183.231 132.76 183.871 132.52 184.591ZM142.125 189.471C139.965 189.471 138.765 188.031 138.765 188.031L140.045 186.671C140.045 186.671 140.845 187.551 142.125 187.551C142.845 187.551 143.085 187.311 143.085 186.991C143.085 186.111 139.085 186.271 139.085 183.711C139.085 182.431 140.205 181.311 142.205 181.311C144.205 181.311 145.245 182.511 145.245 182.511L143.965 183.871C143.965 183.871 143.325 183.231 142.205 183.231C141.645 183.231 141.405 183.471 141.405 183.711C141.405 184.591 145.405 184.431 145.405 186.991C145.405 188.351 144.285 189.471 142.125 189.471Z" fill="#121516"/>
<path d="M131.167 273.186H107L100.958 267.144H82.8334C79.5104 267.144 76.8219 269.863 76.8219 273.186L76.7917 309.436C76.7917 312.758 79.5104 315.477 82.8334 315.477H131.167C134.49 315.477 137.208 312.758 137.208 309.436V279.227C137.208 275.904 134.49 273.186 131.167 273.186ZM131.167 309.436H82.8334V279.227H131.167V309.436Z" fill="#121516"/>
<path d="M66.1537 356.551C63.2737 356.551 61.8337 354.791 61.8337 354.791L63.4337 353.191C63.4337 353.191 64.3937 354.391 66.0737 354.391C67.3537 354.391 67.9137 353.831 67.9137 353.111C67.9137 351.191 62.3137 352.071 62.3137 348.151C62.3137 346.391 63.8337 344.871 66.3937 344.871C68.8737 344.871 70.1537 346.391 70.1537 346.391L68.5537 347.991C68.5537 347.991 67.7537 347.031 66.4737 347.031C65.2737 347.031 64.7937 347.511 64.7937 348.151C64.7937 350.071 70.3937 349.191 70.3937 353.111C70.3937 354.951 68.7937 356.551 66.1537 356.551ZM74.8731 356.471C73.2731 356.471 72.2331 355.431 72.2331 353.591V350.631H70.8731V348.631H71.5931C72.1531 348.631 72.4731 348.311 72.4731 347.671V346.231H74.3931V348.631H76.1531V350.631H74.3931V353.271C74.3931 353.991 74.7931 354.391 75.4331 354.391C75.9131 354.391 76.3131 354.231 76.3131 354.231V356.231C76.3131 356.231 75.6731 356.471 74.8731 356.471ZM79.5231 356.471C78.0831 356.471 77.1231 355.511 77.1231 354.231C77.1231 352.951 78.0031 351.975 79.4431 351.719L81.9231 351.271C81.8431 350.711 81.3631 350.231 80.5631 350.231C79.4431 350.231 78.8031 351.111 78.8031 351.111L77.5231 349.831C77.5231 349.831 78.6431 348.311 80.7231 348.311C82.7231 348.311 84.0831 349.671 84.0831 351.431V356.311C84.0831 356.311 82.4031 356.311 81.9231 356.311V355.351H81.8431C81.8431 355.351 81.0431 356.471 79.5231 356.471ZM80.2431 354.711C81.2031 354.711 81.9231 353.991 81.9231 352.951V352.791L80.1631 353.111C79.6031 353.207 79.2831 353.511 79.2831 353.911C79.2831 354.391 79.6031 354.711 80.2431 354.711ZM88.9675 356.471C87.3675 356.471 86.3275 355.431 86.3275 353.591V350.631H84.9675V348.631H85.6875C86.2475 348.631 86.5675 348.311 86.5675 347.671V346.231H88.4875V348.631H90.2475V350.631H88.4875V353.271C88.4875 353.991 88.8875 354.391 89.5275 354.391C90.0075 354.391 90.4075 354.231 90.4075 354.231V356.231C90.4075 356.231 89.7675 356.471 88.9675 356.471ZM91.7737 356.311V348.471H93.9337V356.311H91.7737ZM92.8457 347.431C92.1737 347.431 91.6137 346.871 91.6137 346.231C91.6137 345.591 92.1737 345.031 92.8617 345.031C93.5337 345.031 94.0937 345.591 94.0937 346.231C94.0937 346.871 93.5337 347.431 92.8457 347.431ZM99.3681 356.471C97.0481 356.471 95.2081 354.631 95.2081 352.391C95.2081 350.151 97.0481 348.311 99.3681 348.311C101.608 348.311 102.648 349.911 102.648 349.911L101.288 351.271C101.288 351.271 100.568 350.311 99.3681 350.311C98.2481 350.311 97.3681 351.191 97.3681 352.391C97.3681 353.591 98.2481 354.471 99.3681 354.471C100.568 354.471 101.288 353.511 101.288 353.511L102.648 354.871C102.648 354.871 101.608 356.471 99.3681 356.471ZM105.276 356.311L109.596 345.111H112.316L116.636 356.311H114.076L113.116 353.751H108.796L107.836 356.311H105.276ZM109.596 351.591H112.316L110.988 347.911H110.924L109.596 351.591ZM119.991 356.471C117.831 356.471 116.631 355.031 116.631 355.031L117.911 353.671C117.911 353.671 118.711 354.551 119.991 354.551C120.711 354.551 120.951 354.311 120.951 353.991C120.951 353.111 116.951 353.271 116.951 350.711C116.951 349.431 118.071 348.311 120.071 348.311C122.071 348.311 123.111 349.511 123.111 349.511L121.831 350.871C121.831 350.871 121.191 350.231 120.071 350.231C119.511 350.231 119.271 350.471 119.271 350.711C119.271 351.591 123.271 351.431 123.271 353.991C123.271 355.351 122.151 356.471 119.991 356.471ZM126.952 356.471C124.792 356.471 123.592 355.031 123.592 355.031L124.872 353.671C124.872 353.671 125.672 354.551 126.952 354.551C127.672 354.551 127.912 354.311 127.912 353.991C127.912 353.111 123.912 353.271 123.912 350.711C123.912 349.431 125.032 348.311 127.032 348.311C129.032 348.311 130.072 349.511 130.072 349.511L128.792 350.871C128.792 350.871 128.152 350.231 127.032 350.231C126.472 350.231 126.232 350.471 126.232 350.711C126.232 351.591 130.232 351.431 130.232 353.991C130.232 355.351 129.112 356.471 126.952 356.471ZM135.034 356.471C132.714 356.471 130.874 354.631 130.874 352.391C130.874 350.151 132.714 348.311 134.954 348.311C137.114 348.311 138.874 350.071 138.874 352.231C138.874 352.791 138.794 353.191 138.794 353.191H133.114C133.354 353.911 133.994 354.551 135.194 354.551C136.554 354.551 137.274 353.671 137.274 353.671L138.394 355.191C138.394 355.191 137.194 356.471 135.034 356.471ZM133.114 351.591H136.634C136.394 350.871 135.754 350.231 134.874 350.231C133.994 350.231 133.354 350.871 133.114 351.591ZM143.439 356.471C141.839 356.471 140.799 355.431 140.799 353.591V350.631H139.439V348.631H140.159C140.719 348.631 141.039 348.311 141.039 347.671V346.231H142.959V348.631H144.719V350.631H142.959V353.271C142.959 353.991 143.359 354.391 143.999 354.391C144.479 354.391 144.879 354.231 144.879 354.231V356.231C144.879 356.231 144.239 356.471 143.439 356.471ZM148.805 356.471C146.645 356.471 145.445 355.031 145.445 355.031L146.725 353.671C146.725 353.671 147.525 354.551 148.805 354.551C149.525 354.551 149.765 354.311 149.765 353.991C149.765 353.111 145.765 353.271 145.765 350.711C145.765 349.431 146.885 348.311 148.885 348.311C150.885 348.311 151.925 349.511 151.925 349.511L150.645 350.871C150.645 350.871 150.005 350.231 148.885 350.231C148.325 350.231 148.085 350.471 148.085 350.711C148.085 351.591 152.085 351.431 152.085 353.991C152.085 355.351 150.965 356.471 148.805 356.471ZM65.6797 379.991C65.6797 379.991 62.7197 376.951 62.7197 372.311C62.7197 367.671 65.6797 364.631 65.6797 364.631L67.3597 365.671C67.3597 365.671 65.0397 368.471 65.0397 372.311C65.0397 376.151 67.3597 378.951 67.3597 378.951L65.6797 379.991ZM71.9216 376.471C69.6016 376.471 67.7616 374.631 67.7616 372.391C67.7616 370.151 69.6016 368.311 71.8416 368.311C74.0016 368.311 75.7616 370.071 75.7616 372.231C75.7616 372.791 75.6816 373.191 75.6816 373.191H70.0016C70.2416 373.911 70.8816 374.551 72.0816 374.551C73.4416 374.551 74.1616 373.671 74.1616 373.671L75.2816 375.191C75.2816 375.191 74.0816 376.471 71.9216 376.471ZM70.0016 371.591H73.5216C73.2816 370.871 72.6416 370.231 71.7616 370.231C70.8816 370.231 70.2416 370.871 70.0016 371.591ZM77.9266 376.471C77.2066 376.471 76.6466 375.911 76.6466 375.191C76.6466 374.471 77.2066 373.911 77.9266 373.911C78.6466 373.911 79.2066 374.471 79.2066 375.191C79.2066 375.911 78.6466 376.471 77.9266 376.471ZM83.8503 379.671C81.5303 379.671 80.4103 378.071 80.4103 378.071L81.7703 376.711C81.7703 376.711 82.5703 377.671 83.8503 377.671C85.0503 377.671 85.9303 376.791 85.9303 375.511V374.871H85.8503C85.8503 374.871 85.1303 376.151 83.4503 376.151C81.6903 376.151 80.0903 374.551 80.0903 372.231C80.0903 369.911 81.6903 368.311 83.4503 368.311C85.1303 368.311 85.8503 369.591 85.8503 369.591H85.9303V368.471H88.0903V375.511C88.0903 377.911 86.3303 379.671 83.8503 379.671ZM84.0903 374.151C85.1303 374.151 85.9303 373.351 85.9303 372.231C85.9303 371.111 85.1303 370.311 84.0903 370.311C83.0503 370.311 82.2503 371.111 82.2503 372.231C82.2503 373.351 83.0503 374.151 84.0903 374.151ZM90.7241 376.471C90.0041 376.471 89.4441 375.911 89.4441 375.191C89.4441 374.471 90.0041 373.911 90.7241 373.911C91.4441 373.911 92.0041 374.471 92.0041 375.191C92.0041 375.911 91.4441 376.471 90.7241 376.471ZM96.4072 376.311V368.471H98.5672V376.311H96.4072ZM97.4792 367.431C96.8072 367.431 96.2472 366.871 96.2472 366.231C96.2472 365.591 96.8072 365.031 97.4952 365.031C98.1672 365.031 98.7272 365.591 98.7272 366.231C98.7272 366.871 98.1672 367.431 97.4792 367.431ZM100.322 376.311V368.471H102.482V369.591H102.562C102.562 369.591 103.202 368.311 104.722 368.311C106.402 368.311 107.042 369.671 107.042 369.671H107.122C107.122 369.671 108.002 368.311 109.682 368.311C111.202 368.311 112.402 369.511 112.402 371.431V376.311H110.242V371.751C110.242 370.871 109.762 370.391 108.962 370.391C108.082 370.391 107.442 371.031 107.442 371.991V376.311H105.282V371.751C105.282 370.871 104.802 370.391 104.002 370.391C103.122 370.391 102.482 371.031 102.482 371.991V376.311H100.322ZM116.158 376.471C114.718 376.471 113.758 375.511 113.758 374.231C113.758 372.951 114.638 371.975 116.078 371.719L118.558 371.271C118.478 370.711 117.998 370.231 117.198 370.231C116.078 370.231 115.438 371.111 115.438 371.111L114.158 369.831C114.158 369.831 115.278 368.311 117.358 368.311C119.358 368.311 120.718 369.671 120.718 371.431V376.311C120.718 376.311 119.038 376.311 118.558 376.311V375.351H118.478C118.478 375.351 117.678 376.471 116.158 376.471ZM116.878 374.711C117.838 374.711 118.558 373.991 118.558 372.951V372.791L116.798 373.111C116.238 373.207 115.918 373.511 115.918 373.911C115.918 374.391 116.238 374.711 116.878 374.711ZM125.758 379.671C123.438 379.671 122.318 378.071 122.318 378.071L123.678 376.711C123.678 376.711 124.478 377.671 125.758 377.671C126.958 377.671 127.838 376.791 127.838 375.511V374.871H127.758C127.758 374.871 127.038 376.151 125.358 376.151C123.598 376.151 121.998 374.551 121.998 372.231C121.998 369.911 123.598 368.311 125.358 368.311C127.038 368.311 127.758 369.591 127.758 369.591H127.838V368.471H129.998V375.511C129.998 377.911 128.238 379.671 125.758 379.671ZM125.998 374.151C127.038 374.151 127.838 373.351 127.838 372.231C127.838 371.111 127.038 370.311 125.998 370.311C124.958 370.311 124.158 371.111 124.158 372.231C124.158 373.351 124.958 374.151 125.998 374.151ZM135.432 376.471C133.112 376.471 131.272 374.631 131.272 372.391C131.272 370.151 133.112 368.311 135.352 368.311C137.512 368.311 139.272 370.071 139.272 372.231C139.272 372.791 139.192 373.191 139.192 373.191H133.512C133.752 373.911 134.392 374.551 135.592 374.551C136.952 374.551 137.672 373.671 137.672 373.671L138.792 375.191C138.792 375.191 137.592 376.471 135.432 376.471ZM133.512 371.591H137.032C136.792 370.871 136.152 370.231 135.272 370.231C134.392 370.231 133.752 370.871 133.512 371.591ZM143.117 376.471C140.957 376.471 139.757 375.031 139.757 375.031L141.037 373.671C141.037 373.671 141.837 374.551 143.117 374.551C143.837 374.551 144.077 374.311 144.077 373.991C144.077 373.111 140.077 373.271 140.077 370.711C140.077 369.431 141.197 368.311 143.197 368.311C145.197 368.311 146.237 369.511 146.237 369.511L144.957 370.871C144.957 370.871 144.317 370.231 143.197 370.231C142.637 370.231 142.397 370.471 142.397 370.711C142.397 371.591 146.397 371.431 146.397 373.991C146.397 375.351 145.277 376.471 143.117 376.471ZM148.318 379.991L146.638 378.951C146.638 378.951 148.958 376.151 148.958 372.311C148.958 368.471 146.638 365.671 146.638 365.671L148.318 364.631C148.318 364.631 151.278 367.671 151.278 372.311C151.278 376.951 148.318 379.991 148.318 379.991Z" fill="#121516"/>
<rect x="1" y="1" width="212" height="406.311" stroke="#121516" stroke-width="2" stroke-dasharray="4 4"/>
<path d="M242.522 260.243C242.38 261.06 242.927 261.836 243.743 261.978L257.044 264.288C257.86 264.43 258.637 263.883 258.779 263.067C258.921 262.251 258.374 261.474 257.558 261.332L245.735 259.279L247.788 247.456C247.93 246.64 247.383 245.863 246.567 245.721C245.751 245.579 244.974 246.126 244.832 246.942L242.522 260.243ZM481 164L481 162.5L481 164ZM244 260.5C244.864 261.727 244.864 261.726 244.865 261.726C244.866 261.725 244.867 261.724 244.869 261.723C244.873 261.72 244.879 261.716 244.887 261.71C244.903 261.699 244.927 261.682 244.96 261.659C245.025 261.613 245.123 261.545 245.253 261.454C245.513 261.273 245.902 261.004 246.413 260.652C247.437 259.949 248.953 258.916 250.919 257.6C254.851 254.969 260.584 251.207 267.776 246.692C282.161 237.662 302.38 225.622 325.713 213.583C372.444 189.472 431.419 165.5 481 165.5L481 162.5C430.649 162.5 371.123 186.778 324.338 210.917C300.912 223.003 280.618 235.088 266.181 244.151C258.961 248.683 253.204 252.461 249.251 255.107C247.274 256.43 245.747 257.47 244.714 258.18C244.197 258.535 243.804 258.808 243.539 258.992C243.407 259.084 243.307 259.154 243.24 259.201C243.206 259.225 243.18 259.243 243.163 259.255C243.155 259.261 243.148 259.265 243.144 259.268C243.141 259.27 243.14 259.271 243.138 259.272C243.137 259.273 243.136 259.273 244 260.5ZM481 165.5C530.581 165.5 589.556 189.472 636.287 213.583C659.62 225.622 679.839 237.662 694.224 246.692C701.416 251.207 707.149 254.969 711.081 257.6C713.047 258.916 714.563 259.949 715.587 260.652C716.098 261.004 716.487 261.273 716.747 261.454C716.877 261.545 716.975 261.613 717.04 261.659C717.073 261.682 717.097 261.699 717.113 261.71C717.121 261.716 717.127 261.72 717.131 261.723C717.133 261.724 717.134 261.725 717.135 261.726C717.136 261.726 717.137 261.727 718 260.5C718.864 259.273 718.863 259.273 718.862 259.272C718.86 259.271 718.859 259.27 718.856 259.268C718.852 259.265 718.845 259.261 718.837 259.255C718.82 259.243 718.794 259.225 718.76 259.201C718.693 259.154 718.593 259.084 718.461 258.992C718.196 258.808 717.803 258.535 717.286 258.18C716.253 257.47 714.726 256.43 712.749 255.107C708.796 252.461 703.039 248.683 695.819 244.151C681.382 235.088 661.088 223.003 637.662 210.917C590.877 186.778 531.351 162.5 481 162.5L481 165.5Z" fill="#121516"/>
<path d="M242.522 243.243C242.38 244.06 242.927 244.836 243.743 244.978L257.044 247.288C257.86 247.43 258.637 246.883 258.779 246.067C258.921 245.251 258.374 244.474 257.558 244.332L245.735 242.279L247.788 230.456C247.93 229.64 247.383 228.863 246.567 228.721C245.751 228.579 244.974 229.126 244.832 229.942L242.522 243.243ZM481 147L481 145.5L481 147ZM244 243.5C244.864 244.727 244.864 244.726 244.865 244.726C244.866 244.725 244.867 244.724 244.869 244.723C244.873 244.72 244.879 244.716 244.887 244.71C244.903 244.699 244.927 244.682 244.96 244.659C245.025 244.613 245.123 244.545 245.253 244.454C245.513 244.273 245.902 244.004 246.413 243.652C247.437 242.949 248.953 241.916 250.919 240.6C254.851 237.969 260.584 234.207 267.776 229.692C282.161 220.662 302.38 208.622 325.713 196.583C372.444 172.472 431.419 148.5 481 148.5L481 145.5C430.649 145.5 371.123 169.778 324.338 193.917C300.912 206.003 280.618 218.088 266.181 227.151C258.961 231.683 253.204 235.461 249.251 238.107C247.274 239.43 245.747 240.47 244.714 241.18C244.197 241.535 243.804 241.808 243.539 241.992C243.407 242.084 243.307 242.154 243.24 242.201C243.206 242.225 243.18 242.243 243.163 242.255C243.155 242.261 243.148 242.265 243.144 242.268C243.141 242.27 243.14 242.271 243.138 242.272C243.137 242.273 243.136 242.273 244 243.5ZM481 148.5C530.581 148.5 589.556 172.472 636.287 196.583C659.62 208.622 679.839 220.662 694.224 229.692C701.416 234.207 707.149 237.969 711.081 240.6C713.047 241.916 714.563 242.949 715.587 243.652C716.098 244.004 716.487 244.273 716.747 244.454C716.877 244.545 716.975 244.613 717.04 244.659C717.073 244.682 717.097 244.699 717.113 244.71C717.121 244.716 717.127 244.72 717.131 244.723C717.133 244.724 717.134 244.725 717.135 244.726C717.136 244.726 717.137 244.727 718 243.5C718.864 242.273 718.863 242.273 718.862 242.272C718.86 242.271 718.859 242.27 718.856 242.268C718.852 242.265 718.845 242.261 718.837 242.255C718.82 242.243 718.794 242.225 718.76 242.201C718.693 242.154 718.593 242.084 718.461 241.992C718.196 241.808 717.803 241.535 717.286 241.18C716.253 240.47 714.726 239.43 712.749 238.107C708.796 235.461 703.039 231.683 695.819 227.151C681.382 218.088 661.088 206.003 637.662 193.917C590.877 169.778 531.351 145.5 481 145.5L481 148.5Z" fill="white"/>
</g>
<defs>
<clipPath id="clip0_1_793">
<rect width="1077" height="408" fill="white"/>
</clipPath>
<clipPath id="clip1_1_793">
<rect width="134" height="134" fill="white" transform="translate(923 71.9751)"/>
</clipPath>
</defs>
</svg>
