<svg width="1077" height="408" viewBox="0 0 1077 408" fill="none" xmlns="http://www.w3.org/2000/svg">
<g clip-path="url(#clip0_1_698)">
<rect x="1.5" y="1" width="326" height="403.975" fill="white"/>
<path d="M88.5503 44.375C84.0503 44.375 81.8003 41.625 81.8003 41.625L84.3003 39.125C84.3003 39.125 85.8003 41 88.4253 41C90.4253 41 91.3003 40.125 91.3003 39C91.3003 36 82.5503 37.375 82.5503 31.25C82.5503 28.5 84.9253 26.125 88.9253 26.125C92.8003 26.125 94.8003 28.5 94.8003 28.5L92.3003 31C92.3003 31 91.0503 29.5 89.0503 29.5C87.1753 29.5 86.4253 30.25 86.4253 31.25C86.4253 34.25 95.1753 32.875 95.1753 39C95.1753 41.875 92.6753 44.375 88.5503 44.375ZM102.674 44.375C98.1743 44.375 95.9243 41.625 95.9243 41.625L98.4243 39.125C98.4243 39.125 99.9243 41 102.549 41C104.549 41 105.424 40.125 105.424 39C105.424 36 96.6743 37.375 96.6743 31.25C96.6743 28.5 99.0493 26.125 103.049 26.125C106.924 26.125 108.924 28.5 108.924 28.5L106.424 31C106.424 31 105.174 29.5 103.174 29.5C101.299 29.5 100.549 30.25 100.549 31.25C100.549 34.25 109.299 32.875 109.299 39C109.299 41.875 106.799 44.375 102.674 44.375ZM120.173 44.375C114.798 44.375 110.673 40.25 110.673 35.25C110.673 30.25 114.798 26.125 120.173 26.125C125.048 26.125 127.548 29.625 127.548 29.625L125.048 32.125C125.048 32.125 123.298 29.625 120.173 29.625C117.048 29.625 114.548 32.125 114.548 35.25C114.548 38.375 117.048 40.875 120.173 40.875C122.673 40.875 124.048 39.5 124.048 39.5V37.375H120.798V34.375H127.798V41C127.798 41 125.173 44.375 120.173 44.375ZM144.295 44.375C138.92 44.375 134.795 40.25 134.795 35.25C134.795 30.25 138.92 26.125 144.295 26.125C149.17 26.125 151.67 29.625 151.67 29.625L149.17 32.125C149.17 32.125 147.42 29.625 144.295 29.625C141.17 29.625 138.67 32.125 138.67 35.25C138.67 38.375 141.17 40.875 144.295 40.875C147.545 40.875 149.295 38.375 149.295 38.375L151.795 40.875C151.795 40.875 149.295 44.375 144.295 44.375ZM158.929 44.25C155.304 44.25 152.429 41.375 152.429 37.875C152.429 34.375 155.304 31.5 158.929 31.5C162.554 31.5 165.429 34.375 165.429 37.875C165.429 41.375 162.554 44.25 158.929 44.25ZM158.929 41.125C160.679 41.125 162.054 39.75 162.054 37.875C162.054 36 160.679 34.625 158.929 34.625C157.179 34.625 155.804 36 155.804 37.875C155.804 39.75 157.179 41.125 158.929 41.125ZM172.175 44.25C169.3 44.25 166.675 41.625 166.675 37.875C166.675 34.125 169.3 31.5 172.175 31.5C174.8 31.5 176.05 33.5 176.05 33.5H176.175V26.5H179.55V44H176.175V42.25H176.05C176.05 42.25 174.8 44.25 172.175 44.25ZM173.175 41.125C174.925 41.125 176.3 39.75 176.3 37.875C176.3 36 174.925 34.625 173.175 34.625C171.425 34.625 170.05 36 170.05 37.875C170.05 39.75 171.425 41.125 173.175 41.125ZM188.178 44.25C184.553 44.25 181.678 41.375 181.678 37.875C181.678 34.375 184.553 31.5 188.053 31.5C191.428 31.5 194.178 34.25 194.178 37.625C194.178 38.5 194.053 39.125 194.053 39.125H185.178C185.553 40.25 186.553 41.25 188.428 41.25C190.553 41.25 191.678 39.875 191.678 39.875L193.428 42.25C193.428 42.25 191.553 44.25 188.178 44.25ZM185.178 36.625H190.678C190.303 35.5 189.303 34.5 187.928 34.5C186.553 34.5 185.553 35.5 185.178 36.625ZM203.686 44.25C201.061 44.25 199.811 42.25 199.811 42.25H199.686V44H196.311V26.5H199.686V33.5H199.811C199.811 33.5 201.061 31.5 203.686 31.5C206.561 31.5 209.186 34.125 209.186 37.875C209.186 41.625 206.561 44.25 203.686 44.25ZM202.686 41.125C204.436 41.125 205.811 39.75 205.811 37.875C205.811 36 204.436 34.625 202.686 34.625C200.936 34.625 199.561 36 199.561 37.875C199.561 39.75 200.936 41.125 202.686 41.125ZM214.314 44.25C212.064 44.25 210.564 42.75 210.564 40.75C210.564 38.75 211.939 37.225 214.189 36.825L218.064 36.125C217.939 35.25 217.189 34.5 215.939 34.5C214.189 34.5 213.189 35.875 213.189 35.875L211.189 33.875C211.189 33.875 212.939 31.5 216.189 31.5C219.314 31.5 221.439 33.625 221.439 36.375V44C221.439 44 218.814 44 218.064 44V42.5H217.939C217.939 42.5 216.689 44.25 214.314 44.25ZM215.439 41.5C216.939 41.5 218.064 40.375 218.064 38.75V38.5L215.314 39C214.439 39.15 213.939 39.625 213.939 40.25C213.939 41 214.439 41.5 215.439 41.5ZM228.19 44.25C224.815 44.25 222.94 42 222.94 42L224.94 39.875C224.94 39.875 226.19 41.25 228.19 41.25C229.315 41.25 229.69 40.875 229.69 40.375C229.69 39 223.44 39.25 223.44 35.25C223.44 33.25 225.19 31.5 228.315 31.5C231.44 31.5 233.065 33.375 233.065 33.375L231.065 35.5C231.065 35.5 230.065 34.5 228.315 34.5C227.44 34.5 227.065 34.875 227.065 35.25C227.065 36.625 233.315 36.375 233.315 40.375C233.315 42.5 231.565 44.25 228.19 44.25ZM240.817 44.25C237.192 44.25 234.317 41.375 234.317 37.875C234.317 34.375 237.192 31.5 240.692 31.5C244.067 31.5 246.817 34.25 246.817 37.625C246.817 38.5 246.692 39.125 246.692 39.125H237.817C238.192 40.25 239.192 41.25 241.067 41.25C243.192 41.25 244.317 39.875 244.317 39.875L246.067 42.25C246.067 42.25 244.192 44.25 240.817 44.25ZM237.817 36.625H243.317C242.942 35.5 241.942 34.5 240.567 34.5C239.192 34.5 238.192 35.5 237.817 36.625Z" fill="#121516"/>
<path d="M111.667 103.85H87.5L81.4584 97.8084H63.3334C60.0104 97.8084 57.3219 100.527 57.3219 103.85L57.2917 140.1C57.2917 143.423 60.0104 146.142 63.3334 146.142H111.667C114.99 146.142 117.708 143.423 117.708 140.1V109.892C117.708 106.569 114.99 103.85 111.667 103.85ZM111.667 140.1H63.3334V109.892H111.667V140.1Z" fill="#121516"/>
<path d="M29.9334 186.975V175.775H34.0134C37.4534 175.775 39.9334 178.255 39.9334 181.375C39.9334 184.495 37.4534 186.975 34.0134 186.975H29.9334ZM32.3334 184.735H34.0134C36.0134 184.735 37.4534 183.295 37.4534 181.375C37.4534 179.455 36.0134 178.015 34.0134 178.015H32.3334V184.735ZM43.3697 187.135C41.9297 187.135 40.9697 186.175 40.9697 184.895C40.9697 183.615 41.8497 182.639 43.2897 182.383L45.7697 181.935C45.6897 181.375 45.2097 180.895 44.4097 180.895C43.2897 180.895 42.6497 181.775 42.6497 181.775L41.3697 180.495C41.3697 180.495 42.4897 178.975 44.5697 178.975C46.5697 178.975 47.9297 180.335 47.9297 182.095V186.975C47.9297 186.975 46.2497 186.975 45.7697 186.975V186.015H45.6897C45.6897 186.015 44.8897 187.135 43.3697 187.135ZM44.0897 185.375C45.0497 185.375 45.7697 184.655 45.7697 183.615V183.455L44.0097 183.775C43.4497 183.871 43.1297 184.175 43.1297 184.575C43.1297 185.055 43.4497 185.375 44.0897 185.375ZM52.8141 187.135C51.2141 187.135 50.1741 186.095 50.1741 184.255V181.295H48.8141V179.295H49.5341C50.0941 179.295 50.4141 178.975 50.4141 178.335V176.895H52.3341V179.295H54.0941V181.295H52.3341V183.935C52.3341 184.655 52.7341 185.055 53.3741 185.055C53.8541 185.055 54.2541 184.895 54.2541 184.895V186.895C54.2541 186.895 53.6141 187.135 52.8141 187.135ZM57.4641 187.135C56.0241 187.135 55.0641 186.175 55.0641 184.895C55.0641 183.615 55.9441 182.639 57.3841 182.383L59.8641 181.935C59.7841 181.375 59.3041 180.895 58.5041 180.895C57.3841 180.895 56.7441 181.775 56.7441 181.775L55.4641 180.495C55.4641 180.495 56.5841 178.975 58.6641 178.975C60.6641 178.975 62.0241 180.335 62.0241 182.095V186.975C62.0241 186.975 60.3441 186.975 59.8641 186.975V186.015H59.7841C59.7841 186.015 58.9841 187.135 57.4641 187.135ZM58.1841 185.375C59.1441 185.375 59.8641 184.655 59.8641 183.615V183.455L58.1041 183.775C57.5441 183.871 57.2241 184.175 57.2241 184.575C57.2241 185.055 57.5441 185.375 58.1841 185.375ZM63.7847 189.055L62.5047 188.335L64.1847 184.575L66.0247 185.615L63.7847 189.055ZM74.0278 187.135C71.7078 187.135 69.8678 185.295 69.8678 183.055C69.8678 180.815 71.7078 178.975 74.0278 178.975C76.2678 178.975 77.3078 180.575 77.3078 180.575L75.9478 181.935C75.9478 181.935 75.2278 180.975 74.0278 180.975C72.9078 180.975 72.0278 181.855 72.0278 183.055C72.0278 184.255 72.9078 185.135 74.0278 185.135C75.2278 185.135 75.9478 184.175 75.9478 184.175L77.3078 185.535C77.3078 185.535 76.2678 187.135 74.0278 187.135ZM81.8641 187.135C79.5441 187.135 77.7041 185.295 77.7041 183.055C77.7041 180.815 79.5441 178.975 81.8641 178.975C84.1841 178.975 86.0241 180.815 86.0241 183.055C86.0241 185.295 84.1841 187.135 81.8641 187.135ZM81.8641 185.135C82.9841 185.135 83.8641 184.255 83.8641 183.055C83.8641 181.855 82.9841 180.975 81.8641 180.975C80.7441 180.975 79.8641 181.855 79.8641 183.055C79.8641 184.255 80.7441 185.135 81.8641 185.135ZM87.3816 186.975V175.775H89.5416V186.975H87.3816ZM91.4678 186.975V175.775H93.6278V186.975H91.4678ZM99.1541 187.135C96.8341 187.135 94.9941 185.295 94.9941 183.055C94.9941 180.815 96.8341 178.975 99.0741 178.975C101.234 178.975 102.994 180.735 102.994 182.895C102.994 183.455 102.914 183.855 102.914 183.855H97.2341C97.4741 184.575 98.1141 185.215 99.3141 185.215C100.674 185.215 101.394 184.335 101.394 184.335L102.514 185.855C102.514 185.855 101.314 187.135 99.1541 187.135ZM97.2341 182.255H100.754C100.514 181.535 99.8741 180.895 98.9941 180.895C98.1141 180.895 97.4741 181.535 97.2341 182.255ZM107.959 187.135C105.639 187.135 103.799 185.295 103.799 183.055C103.799 180.815 105.639 178.975 107.959 178.975C110.199 178.975 111.239 180.575 111.239 180.575L109.879 181.935C109.879 181.935 109.159 180.975 107.959 180.975C106.839 180.975 105.959 181.855 105.959 183.055C105.959 184.255 106.839 185.135 107.959 185.135C109.159 185.135 109.879 184.175 109.879 184.175L111.239 185.535C111.239 185.535 110.199 187.135 107.959 187.135ZM115.552 187.135C113.952 187.135 112.912 186.095 112.912 184.255V181.295H111.552V179.295H112.272C112.832 179.295 113.152 178.975 113.152 178.335V176.895H115.072V179.295H116.832V181.295H115.072V183.935C115.072 184.655 115.472 185.055 116.112 185.055C116.592 185.055 116.992 184.895 116.992 184.895V186.895C116.992 186.895 116.352 187.135 115.552 187.135ZM118.358 186.975V179.135H120.518V186.975H118.358ZM119.43 178.095C118.758 178.095 118.198 177.535 118.198 176.895C118.198 176.255 118.758 175.695 119.446 175.695C120.118 175.695 120.678 176.255 120.678 176.895C120.678 177.535 120.118 178.095 119.43 178.095ZM125.952 187.135C123.632 187.135 121.792 185.295 121.792 183.055C121.792 180.815 123.632 178.975 125.952 178.975C128.272 178.975 130.112 180.815 130.112 183.055C130.112 185.295 128.272 187.135 125.952 187.135ZM125.952 185.135C127.072 185.135 127.952 184.255 127.952 183.055C127.952 181.855 127.072 180.975 125.952 180.975C124.832 180.975 123.952 181.855 123.952 183.055C123.952 184.255 124.832 185.135 125.952 185.135ZM131.39 186.975V179.135H133.55V180.255H133.63C133.63 180.255 134.43 178.975 135.95 178.975C137.55 178.975 138.83 180.255 138.83 182.255V186.975H136.67V182.575C136.67 181.615 136.11 181.055 135.23 181.055C134.27 181.055 133.55 181.775 133.55 182.815V186.975H131.39ZM143.145 187.135C140.985 187.135 139.785 185.695 139.785 185.695L141.065 184.335C141.065 184.335 141.865 185.215 143.145 185.215C143.865 185.215 144.105 184.975 144.105 184.655C144.105 183.775 140.105 183.935 140.105 181.375C140.105 180.095 141.225 178.975 143.225 178.975C145.225 178.975 146.265 180.175 146.265 180.175L144.985 181.535C144.985 181.535 144.345 180.895 143.225 180.895C142.665 180.895 142.425 181.135 142.425 181.375C142.425 182.255 146.425 182.095 146.425 184.655C146.425 186.015 145.305 187.135 143.145 187.135ZM47.3744 207.135C45.9344 207.135 44.9744 206.175 44.9744 204.895C44.9744 203.615 45.8544 202.639 47.2944 202.383L49.7744 201.935C49.6944 201.375 49.2144 200.895 48.4144 200.895C47.2944 200.895 46.6544 201.775 46.6544 201.775L45.3744 200.495C45.3744 200.495 46.4944 198.975 48.5744 198.975C50.5744 198.975 51.9344 200.335 51.9344 202.095V206.975C51.9344 206.975 50.2544 206.975 49.7744 206.975V206.015H49.6944C49.6944 206.015 48.8944 207.135 47.3744 207.135ZM48.0944 205.375C49.0544 205.375 49.7744 204.655 49.7744 203.615V203.455L48.0144 203.775C47.4544 203.871 47.1344 204.175 47.1344 204.575C47.1344 205.055 47.4544 205.375 48.0944 205.375ZM53.695 206.975V199.135H55.855V200.255H55.935C55.935 200.255 56.735 198.975 58.255 198.975C59.855 198.975 61.135 200.255 61.135 202.255V206.975H58.975V202.575C58.975 201.615 58.415 201.055 57.535 201.055C56.575 201.055 55.855 201.775 55.855 202.815V206.975H53.695ZM65.9306 207.135C64.0906 207.135 62.4106 205.455 62.4106 203.055C62.4106 200.655 64.0906 198.975 65.9306 198.975C67.6106 198.975 68.4106 200.255 68.4106 200.255H68.4906V195.775H70.6506V206.975H68.4906V205.855H68.4106C68.4106 205.855 67.6106 207.135 65.9306 207.135ZM66.5706 205.135C67.6906 205.135 68.5706 204.255 68.5706 203.055C68.5706 201.855 67.6906 200.975 66.5706 200.975C65.4506 200.975 64.5706 201.855 64.5706 203.055C64.5706 204.255 65.4506 205.135 66.5706 205.135ZM79.2119 207.135C76.8919 207.135 75.0519 205.295 75.0519 203.055C75.0519 200.815 76.8919 198.975 79.2119 198.975C81.4519 198.975 82.4919 200.575 82.4919 200.575L81.1319 201.935C81.1319 201.935 80.4119 200.975 79.2119 200.975C78.0919 200.975 77.2119 201.855 77.2119 203.055C77.2119 204.255 78.0919 205.135 79.2119 205.135C80.4119 205.135 81.1319 204.175 81.1319 204.175L82.4919 205.535C82.4919 205.535 81.4519 207.135 79.2119 207.135ZM87.0481 207.135C84.7281 207.135 82.8881 205.295 82.8881 203.055C82.8881 200.815 84.7281 198.975 87.0481 198.975C89.3681 198.975 91.2081 200.815 91.2081 203.055C91.2081 205.295 89.3681 207.135 87.0481 207.135ZM87.0481 205.135C88.1681 205.135 89.0481 204.255 89.0481 203.055C89.0481 201.855 88.1681 200.975 87.0481 200.975C85.9281 200.975 85.0481 201.855 85.0481 203.055C85.0481 204.255 85.9281 205.135 87.0481 205.135ZM92.4856 206.975V199.135H94.6456V200.255H94.7256C94.7256 200.255 95.5256 198.975 97.0456 198.975C98.6456 198.975 99.9256 200.255 99.9256 202.255V206.975H97.7656V202.575C97.7656 201.615 97.2056 201.055 96.3256 201.055C95.3656 201.055 94.6456 201.775 94.6456 202.815V206.975H92.4856ZM104.805 207.135C103.205 207.135 102.165 206.095 102.165 204.255V201.295H100.805V199.295H101.525C102.085 199.295 102.405 198.975 102.405 198.335V196.895H104.325V199.295H106.085V201.295H104.325V203.935C104.325 204.655 104.725 205.055 105.365 205.055C105.845 205.055 106.245 204.895 106.245 204.895V206.895C106.245 206.895 105.605 207.135 104.805 207.135ZM111.135 207.135C108.815 207.135 106.975 205.295 106.975 203.055C106.975 200.815 108.815 198.975 111.055 198.975C113.215 198.975 114.975 200.735 114.975 202.895C114.975 203.455 114.895 203.855 114.895 203.855H109.215C109.455 204.575 110.095 205.215 111.295 205.215C112.655 205.215 113.375 204.335 113.375 204.335L114.495 205.855C114.495 205.855 113.295 207.135 111.135 207.135ZM109.215 202.255H112.735C112.495 201.535 111.855 200.895 110.975 200.895C110.095 200.895 109.455 201.535 109.215 202.255ZM116.26 206.975V199.135H118.42V200.255H118.5C118.5 200.255 119.3 198.975 120.82 198.975C122.42 198.975 123.7 200.255 123.7 202.255V206.975H121.54V202.575C121.54 201.615 120.98 201.055 120.1 201.055C119.14 201.055 118.42 201.775 118.42 202.815V206.975H116.26ZM128.579 207.135C126.979 207.135 125.939 206.095 125.939 204.255V201.295H124.579V199.295H125.299C125.859 199.295 126.179 198.975 126.179 198.335V196.895H128.099V199.295H129.859V201.295H128.099V203.935C128.099 204.655 128.499 205.055 129.139 205.055C129.619 205.055 130.019 204.895 130.019 204.895V206.895C130.019 206.895 129.379 207.135 128.579 207.135Z" fill="#121516"/>
<path d="M265.667 103.85H241.5L235.458 97.8084H217.333C214.01 97.8084 211.322 100.527 211.322 103.85L211.292 140.1C211.292 143.423 214.01 146.142 217.333 146.142H265.667C268.99 146.142 271.708 143.423 271.708 140.1V109.892C271.708 106.569 268.99 103.85 265.667 103.85ZM265.667 140.1H217.333V109.892H265.667V140.1Z" fill="#121516"/>
<path d="M181.582 186.975V175.775H183.982V184.735H189.182V186.975H181.582ZM192.221 187.135C190.781 187.135 189.821 186.175 189.821 184.895C189.821 183.615 190.701 182.639 192.141 182.383L194.621 181.935C194.541 181.375 194.061 180.895 193.261 180.895C192.141 180.895 191.501 181.775 191.501 181.775L190.221 180.495C190.221 180.495 191.341 178.975 193.421 178.975C195.421 178.975 196.781 180.335 196.781 182.095V186.975C196.781 186.975 195.101 186.975 194.621 186.975V186.015H194.541C194.541 186.015 193.741 187.135 192.221 187.135ZM192.941 185.375C193.901 185.375 194.621 184.655 194.621 183.615V183.455L192.861 183.775C192.301 183.871 191.981 184.175 191.981 184.575C191.981 185.055 192.301 185.375 192.941 185.375ZM199.346 190.335C198.546 190.335 197.906 190.095 197.906 190.095V188.095C197.906 188.095 198.306 188.255 198.786 188.255C199.506 188.255 199.922 187.855 200.146 187.295L200.306 186.895L197.266 179.135H199.586L201.426 184.335H201.506L203.266 179.135H205.586L202.386 187.615C201.73 189.375 200.786 190.335 199.346 190.335ZM209.902 187.135C207.582 187.135 205.742 185.295 205.742 183.055C205.742 180.815 207.582 178.975 209.902 178.975C212.222 178.975 214.062 180.815 214.062 183.055C214.062 185.295 212.222 187.135 209.902 187.135ZM209.902 185.135C211.022 185.135 211.902 184.255 211.902 183.055C211.902 181.855 211.022 180.975 209.902 180.975C208.782 180.975 207.902 181.855 207.902 183.055C207.902 184.255 208.782 185.135 209.902 185.135ZM218.219 187.135C216.619 187.135 215.339 185.855 215.339 183.855V179.135H217.499V183.535C217.499 184.495 218.059 185.055 218.939 185.055C219.899 185.055 220.619 184.335 220.619 183.295V179.135H222.779V186.975H220.619V185.855H220.539C220.539 185.855 219.739 187.135 218.219 187.135ZM227.815 187.135C226.215 187.135 225.175 186.095 225.175 184.255V181.295H223.815V179.295H224.535C225.095 179.295 225.415 178.975 225.415 178.335V176.895H227.335V179.295H229.095V181.295H227.335V183.935C227.335 184.655 227.735 185.055 228.375 185.055C228.855 185.055 229.255 184.895 229.255 184.895V186.895C229.255 186.895 228.615 187.135 227.815 187.135ZM233.181 187.135C231.021 187.135 229.821 185.695 229.821 185.695L231.101 184.335C231.101 184.335 231.901 185.215 233.181 185.215C233.901 185.215 234.141 184.975 234.141 184.655C234.141 183.775 230.141 183.935 230.141 181.375C230.141 180.095 231.261 178.975 233.261 178.975C235.261 178.975 236.301 180.175 236.301 180.175L235.021 181.535C235.021 181.535 234.381 180.895 233.261 180.895C232.701 180.895 232.461 181.135 232.461 181.375C232.461 182.255 236.461 182.095 236.461 184.655C236.461 186.015 235.341 187.135 233.181 187.135ZM237.582 189.055L236.302 188.335L237.982 184.575L239.822 185.615L237.582 189.055ZM244.146 186.975V179.135H246.306V186.975H244.146ZM245.218 178.095C244.546 178.095 243.986 177.535 243.986 176.895C243.986 176.255 244.546 175.695 245.234 175.695C245.906 175.695 246.466 176.255 246.466 176.895C246.466 177.535 245.906 178.095 245.218 178.095ZM248.06 186.975V179.135H250.22V180.255H250.3C250.3 180.255 251.1 178.975 252.62 178.975C254.22 178.975 255.5 180.255 255.5 182.255V186.975H253.34V182.575C253.34 181.615 252.78 181.055 251.9 181.055C250.94 181.055 250.22 181.775 250.22 182.815V186.975H248.06ZM260.936 187.135C258.616 187.135 256.776 185.295 256.776 183.055C256.776 180.815 258.616 178.975 260.936 178.975C263.176 178.975 264.216 180.575 264.216 180.575L262.856 181.935C262.856 181.935 262.136 180.975 260.936 180.975C259.816 180.975 258.936 181.855 258.936 183.055C258.936 184.255 259.816 185.135 260.936 185.135C262.136 185.135 262.856 184.175 262.856 184.175L264.216 185.535C264.216 185.535 263.176 187.135 260.936 187.135ZM265.328 186.975V175.775H267.488V186.975H265.328ZM272.214 187.135C270.614 187.135 269.334 185.855 269.334 183.855V179.135H271.494V183.535C271.494 184.495 272.054 185.055 272.934 185.055C273.894 185.055 274.614 184.335 274.614 183.295V179.135H276.774V186.975H274.614V185.855H274.534C274.534 185.855 273.734 187.135 272.214 187.135ZM281.57 187.135C279.73 187.135 278.05 185.455 278.05 183.055C278.05 180.655 279.73 178.975 281.57 178.975C283.25 178.975 284.05 180.255 284.05 180.255H284.13V175.775H286.29V186.975H284.13V185.855H284.05C284.05 185.855 283.25 187.135 281.57 187.135ZM282.21 185.135C283.33 185.135 284.21 184.255 284.21 183.055C284.21 181.855 283.33 180.975 282.21 180.975C281.09 180.975 280.21 181.855 280.21 183.055C280.21 184.255 281.09 185.135 282.21 185.135ZM291.812 187.135C289.492 187.135 287.652 185.295 287.652 183.055C287.652 180.815 289.492 178.975 291.732 178.975C293.892 178.975 295.652 180.735 295.652 182.895C295.652 183.455 295.572 183.855 295.572 183.855H289.892C290.132 184.575 290.772 185.215 291.972 185.215C293.332 185.215 294.052 184.335 294.052 184.335L295.172 185.855C295.172 185.855 293.972 187.135 291.812 187.135ZM289.892 182.255H293.412C293.172 181.535 292.532 180.895 291.652 180.895C290.772 180.895 290.132 181.535 289.892 182.255ZM299.497 187.135C297.337 187.135 296.137 185.695 296.137 185.695L297.417 184.335C297.417 184.335 298.217 185.215 299.497 185.215C300.217 185.215 300.457 184.975 300.457 184.655C300.457 183.775 296.457 183.935 296.457 181.375C296.457 180.095 297.577 178.975 299.577 178.975C301.577 178.975 302.617 180.175 302.617 180.175L301.337 181.535C301.337 181.535 300.697 180.895 299.577 180.895C299.017 180.895 298.777 181.135 298.777 181.375C298.777 182.255 302.777 182.095 302.777 184.655C302.777 186.015 301.657 187.135 299.497 187.135ZM184.542 207.135C183.102 207.135 182.142 206.175 182.142 204.895C182.142 203.615 183.022 202.639 184.462 202.383L186.942 201.935C186.862 201.375 186.382 200.895 185.582 200.895C184.462 200.895 183.822 201.775 183.822 201.775L182.542 200.495C182.542 200.495 183.662 198.975 185.742 198.975C187.742 198.975 189.102 200.335 189.102 202.095V206.975C189.102 206.975 187.422 206.975 186.942 206.975V206.015H186.862C186.862 206.015 186.062 207.135 184.542 207.135ZM185.262 205.375C186.222 205.375 186.942 204.655 186.942 203.615V203.455L185.182 203.775C184.622 203.871 184.302 204.175 184.302 204.575C184.302 205.055 184.622 205.375 185.262 205.375ZM190.863 206.975V199.135H193.023V200.255H193.103C193.103 200.255 193.903 198.975 195.423 198.975C197.023 198.975 198.303 200.255 198.303 202.255V206.975H196.143V202.575C196.143 201.615 195.583 201.055 194.703 201.055C193.743 201.055 193.023 201.775 193.023 202.815V206.975H190.863ZM203.098 207.135C201.258 207.135 199.578 205.455 199.578 203.055C199.578 200.655 201.258 198.975 203.098 198.975C204.778 198.975 205.578 200.255 205.578 200.255H205.658V195.775H207.818V206.975H205.658V205.855H205.578C205.578 205.855 204.778 207.135 203.098 207.135ZM203.738 205.135C204.858 205.135 205.738 204.255 205.738 203.055C205.738 201.855 204.858 200.975 203.738 200.975C202.618 200.975 201.738 201.855 201.738 203.055C201.738 204.255 202.618 205.135 203.738 205.135ZM216.379 207.135C214.059 207.135 212.219 205.295 212.219 203.055C212.219 200.815 214.059 198.975 216.379 198.975C218.619 198.975 219.659 200.575 219.659 200.575L218.299 201.935C218.299 201.935 217.579 200.975 216.379 200.975C215.259 200.975 214.379 201.855 214.379 203.055C214.379 204.255 215.259 205.135 216.379 205.135C217.579 205.135 218.299 204.175 218.299 204.175L219.659 205.535C219.659 205.535 218.619 207.135 216.379 207.135ZM224.216 207.135C221.896 207.135 220.056 205.295 220.056 203.055C220.056 200.815 221.896 198.975 224.216 198.975C226.536 198.975 228.376 200.815 228.376 203.055C228.376 205.295 226.536 207.135 224.216 207.135ZM224.216 205.135C225.336 205.135 226.216 204.255 226.216 203.055C226.216 201.855 225.336 200.975 224.216 200.975C223.096 200.975 222.216 201.855 222.216 203.055C222.216 204.255 223.096 205.135 224.216 205.135ZM229.653 206.975V199.135H231.813V200.255H231.893C231.893 200.255 232.533 198.975 234.053 198.975C235.733 198.975 236.373 200.335 236.373 200.335H236.453C236.453 200.335 237.333 198.975 239.013 198.975C240.533 198.975 241.733 200.175 241.733 202.095V206.975H239.573V202.415C239.573 201.535 239.093 201.055 238.293 201.055C237.413 201.055 236.773 201.695 236.773 202.655V206.975H234.613V202.415C234.613 201.535 234.133 201.055 233.333 201.055C232.453 201.055 231.813 201.695 231.813 202.655V206.975H229.653ZM243.489 210.335V199.135H245.649V200.255H245.729C245.729 200.255 246.529 198.975 248.209 198.975C250.049 198.975 251.729 200.655 251.729 203.055C251.729 205.455 250.049 207.135 248.209 207.135C246.529 207.135 245.729 205.855 245.729 205.855H245.649V210.335H243.489ZM247.569 205.135C248.689 205.135 249.569 204.255 249.569 203.055C249.569 201.855 248.689 200.975 247.569 200.975C246.449 200.975 245.569 201.855 245.569 203.055C245.569 204.255 246.449 205.135 247.569 205.135ZM256.693 207.135C254.373 207.135 252.533 205.295 252.533 203.055C252.533 200.815 254.373 198.975 256.693 198.975C259.013 198.975 260.853 200.815 260.853 203.055C260.853 205.295 259.013 207.135 256.693 207.135ZM256.693 205.135C257.813 205.135 258.693 204.255 258.693 203.055C258.693 201.855 257.813 200.975 256.693 200.975C255.573 200.975 254.693 201.855 254.693 203.055C254.693 204.255 255.573 205.135 256.693 205.135ZM262.131 206.975V199.135H264.291V200.255H264.371C264.371 200.255 265.171 198.975 266.691 198.975C268.291 198.975 269.571 200.255 269.571 202.255V206.975H267.411V202.575C267.411 201.615 266.851 201.055 265.971 201.055C265.011 201.055 264.291 201.775 264.291 202.815V206.975H262.131ZM275.006 207.135C272.686 207.135 270.846 205.295 270.846 203.055C270.846 200.815 272.686 198.975 274.926 198.975C277.086 198.975 278.846 200.735 278.846 202.895C278.846 203.455 278.766 203.855 278.766 203.855H273.086C273.326 204.575 273.966 205.215 275.166 205.215C276.526 205.215 277.246 204.335 277.246 204.335L278.366 205.855C278.366 205.855 277.166 207.135 275.006 207.135ZM273.086 202.255H276.606C276.366 201.535 275.726 200.895 274.846 200.895C273.966 200.895 273.326 201.535 273.086 202.255ZM280.131 206.975V199.135H282.291V200.255H282.371C282.371 200.255 283.171 198.975 284.691 198.975C286.291 198.975 287.571 200.255 287.571 202.255V206.975H285.411V202.575C285.411 201.615 284.851 201.055 283.971 201.055C283.011 201.055 282.291 201.775 282.291 202.815V206.975H280.131ZM292.451 207.135C290.851 207.135 289.811 206.095 289.811 204.255V201.295H288.451V199.295H289.171C289.731 199.295 290.051 198.975 290.051 198.335V196.895H291.971V199.295H293.731V201.295H291.971V203.935C291.971 204.655 292.371 205.055 293.011 205.055C293.491 205.055 293.891 204.895 293.891 204.895V206.895C293.891 206.895 293.251 207.135 292.451 207.135ZM297.817 207.135C295.657 207.135 294.457 205.695 294.457 205.695L295.737 204.335C295.737 204.335 296.537 205.215 297.817 205.215C298.537 205.215 298.777 204.975 298.777 204.655C298.777 203.775 294.777 203.935 294.777 201.375C294.777 200.095 295.897 198.975 297.897 198.975C299.897 198.975 300.937 200.175 300.937 200.175L299.657 201.535C299.657 201.535 299.017 200.895 297.897 200.895C297.337 200.895 297.097 201.135 297.097 201.375C297.097 202.255 301.097 202.095 301.097 204.655C301.097 206.015 299.977 207.135 297.817 207.135Z" fill="#121516"/>
<path d="M188.667 270.85H164.5L158.458 264.808H140.333C137.01 264.808 134.322 267.527 134.322 270.85L134.292 307.1C134.292 310.423 137.01 313.142 140.333 313.142H188.667C191.99 313.142 194.708 310.423 194.708 307.1V276.892C194.708 273.569 191.99 270.85 188.667 270.85ZM188.667 307.1H140.333V276.892H188.667V307.1Z" fill="#121516"/>
<path d="M123.654 354.215C120.774 354.215 119.334 352.455 119.334 352.455L120.934 350.855C120.934 350.855 121.894 352.055 123.574 352.055C124.854 352.055 125.414 351.495 125.414 350.775C125.414 348.855 119.814 349.735 119.814 345.815C119.814 344.055 121.334 342.535 123.894 342.535C126.374 342.535 127.654 344.055 127.654 344.055L126.054 345.655C126.054 345.655 125.254 344.695 123.974 344.695C122.774 344.695 122.294 345.175 122.294 345.815C122.294 347.735 127.894 346.855 127.894 350.775C127.894 352.615 126.294 354.215 123.654 354.215ZM132.373 354.135C130.773 354.135 129.733 353.095 129.733 351.255V348.295H128.373V346.295H129.093C129.653 346.295 129.973 345.975 129.973 345.335V343.895H131.893V346.295H133.653V348.295H131.893V350.935C131.893 351.655 132.293 352.055 132.933 352.055C133.413 352.055 133.813 351.895 133.813 351.895V353.895C133.813 353.895 133.173 354.135 132.373 354.135ZM137.023 354.135C135.583 354.135 134.623 353.175 134.623 351.895C134.623 350.615 135.503 349.639 136.943 349.383L139.423 348.935C139.343 348.375 138.863 347.895 138.063 347.895C136.943 347.895 136.303 348.775 136.303 348.775L135.023 347.495C135.023 347.495 136.143 345.975 138.223 345.975C140.223 345.975 141.583 347.335 141.583 349.095V353.975C141.583 353.975 139.903 353.975 139.423 353.975V353.015H139.343C139.343 353.015 138.543 354.135 137.023 354.135ZM137.743 352.375C138.703 352.375 139.423 351.655 139.423 350.615V350.455L137.663 350.775C137.103 350.871 136.783 351.175 136.783 351.575C136.783 352.055 137.103 352.375 137.743 352.375ZM146.467 354.135C144.867 354.135 143.827 353.095 143.827 351.255V348.295H142.467V346.295H143.187C143.747 346.295 144.067 345.975 144.067 345.335V343.895H145.987V346.295H147.747V348.295H145.987V350.935C145.987 351.655 146.387 352.055 147.027 352.055C147.507 352.055 147.907 351.895 147.907 351.895V353.895C147.907 353.895 147.267 354.135 146.467 354.135ZM149.274 353.975V346.135H151.434V353.975H149.274ZM150.346 345.095C149.674 345.095 149.114 344.535 149.114 343.895C149.114 343.255 149.674 342.695 150.362 342.695C151.034 342.695 151.594 343.255 151.594 343.895C151.594 344.535 151.034 345.095 150.346 345.095ZM156.868 354.135C154.548 354.135 152.708 352.295 152.708 350.055C152.708 347.815 154.548 345.975 156.868 345.975C159.108 345.975 160.148 347.575 160.148 347.575L158.788 348.935C158.788 348.935 158.068 347.975 156.868 347.975C155.748 347.975 154.868 348.855 154.868 350.055C154.868 351.255 155.748 352.135 156.868 352.135C158.068 352.135 158.788 351.175 158.788 351.175L160.148 352.535C160.148 352.535 159.108 354.135 156.868 354.135ZM162.776 353.975L167.096 342.775H169.816L174.136 353.975H171.576L170.616 351.415H166.296L165.336 353.975H162.776ZM167.096 349.255H169.816L168.488 345.575H168.424L167.096 349.255ZM177.491 354.135C175.331 354.135 174.131 352.695 174.131 352.695L175.411 351.335C175.411 351.335 176.211 352.215 177.491 352.215C178.211 352.215 178.451 351.975 178.451 351.655C178.451 350.775 174.451 350.935 174.451 348.375C174.451 347.095 175.571 345.975 177.571 345.975C179.571 345.975 180.611 347.175 180.611 347.175L179.331 348.535C179.331 348.535 178.691 347.895 177.571 347.895C177.011 347.895 176.771 348.135 176.771 348.375C176.771 349.255 180.771 349.095 180.771 351.655C180.771 353.015 179.651 354.135 177.491 354.135ZM184.452 354.135C182.292 354.135 181.092 352.695 181.092 352.695L182.372 351.335C182.372 351.335 183.172 352.215 184.452 352.215C185.172 352.215 185.412 351.975 185.412 351.655C185.412 350.775 181.412 350.935 181.412 348.375C181.412 347.095 182.532 345.975 184.532 345.975C186.532 345.975 187.572 347.175 187.572 347.175L186.292 348.535C186.292 348.535 185.652 347.895 184.532 347.895C183.972 347.895 183.732 348.135 183.732 348.375C183.732 349.255 187.732 349.095 187.732 351.655C187.732 353.015 186.612 354.135 184.452 354.135ZM192.534 354.135C190.214 354.135 188.374 352.295 188.374 350.055C188.374 347.815 190.214 345.975 192.454 345.975C194.614 345.975 196.374 347.735 196.374 349.895C196.374 350.455 196.294 350.855 196.294 350.855H190.614C190.854 351.575 191.494 352.215 192.694 352.215C194.054 352.215 194.774 351.335 194.774 351.335L195.894 352.855C195.894 352.855 194.694 354.135 192.534 354.135ZM190.614 349.255H194.134C193.894 348.535 193.254 347.895 192.374 347.895C191.494 347.895 190.854 348.535 190.614 349.255ZM200.939 354.135C199.339 354.135 198.299 353.095 198.299 351.255V348.295H196.939V346.295H197.659C198.219 346.295 198.539 345.975 198.539 345.335V343.895H200.459V346.295H202.219V348.295H200.459V350.935C200.459 351.655 200.859 352.055 201.499 352.055C201.979 352.055 202.379 351.895 202.379 351.895V353.895C202.379 353.895 201.739 354.135 200.939 354.135ZM206.305 354.135C204.145 354.135 202.945 352.695 202.945 352.695L204.225 351.335C204.225 351.335 205.025 352.215 206.305 352.215C207.025 352.215 207.265 351.975 207.265 351.655C207.265 350.775 203.265 350.935 203.265 348.375C203.265 347.095 204.385 345.975 206.385 345.975C208.385 345.975 209.425 347.175 209.425 347.175L208.145 348.535C208.145 348.535 207.505 347.895 206.385 347.895C205.825 347.895 205.585 348.135 205.585 348.375C205.585 349.255 209.585 349.095 209.585 351.655C209.585 353.015 208.465 354.135 206.305 354.135ZM123.18 377.655C123.18 377.655 120.22 374.615 120.22 369.975C120.22 365.335 123.18 362.295 123.18 362.295L124.86 363.335C124.86 363.335 122.54 366.135 122.54 369.975C122.54 373.815 124.86 376.615 124.86 376.615L123.18 377.655ZM129.422 374.135C127.102 374.135 125.262 372.295 125.262 370.055C125.262 367.815 127.102 365.975 129.342 365.975C131.502 365.975 133.262 367.735 133.262 369.895C133.262 370.455 133.182 370.855 133.182 370.855H127.502C127.742 371.575 128.382 372.215 129.582 372.215C130.942 372.215 131.662 371.335 131.662 371.335L132.782 372.855C132.782 372.855 131.582 374.135 129.422 374.135ZM127.502 369.255H131.022C130.782 368.535 130.142 367.895 129.262 367.895C128.382 367.895 127.742 368.535 127.502 369.255ZM135.427 374.135C134.707 374.135 134.147 373.575 134.147 372.855C134.147 372.135 134.707 371.575 135.427 371.575C136.147 371.575 136.707 372.135 136.707 372.855C136.707 373.575 136.147 374.135 135.427 374.135ZM141.35 377.335C139.03 377.335 137.91 375.735 137.91 375.735L139.27 374.375C139.27 374.375 140.07 375.335 141.35 375.335C142.55 375.335 143.43 374.455 143.43 373.175V372.535H143.35C143.35 372.535 142.63 373.815 140.95 373.815C139.19 373.815 137.59 372.215 137.59 369.895C137.59 367.575 139.19 365.975 140.95 365.975C142.63 365.975 143.35 367.255 143.35 367.255H143.43V366.135H145.59V373.175C145.59 375.575 143.83 377.335 141.35 377.335ZM141.59 371.815C142.63 371.815 143.43 371.015 143.43 369.895C143.43 368.775 142.63 367.975 141.59 367.975C140.55 367.975 139.75 368.775 139.75 369.895C139.75 371.015 140.55 371.815 141.59 371.815ZM148.224 374.135C147.504 374.135 146.944 373.575 146.944 372.855C146.944 372.135 147.504 371.575 148.224 371.575C148.944 371.575 149.504 372.135 149.504 372.855C149.504 373.575 148.944 374.135 148.224 374.135ZM153.907 373.975V366.135H156.067V373.975H153.907ZM154.979 365.095C154.307 365.095 153.747 364.535 153.747 363.895C153.747 363.255 154.307 362.695 154.995 362.695C155.667 362.695 156.227 363.255 156.227 363.895C156.227 364.535 155.667 365.095 154.979 365.095ZM157.822 373.975V366.135H159.982V367.255H160.062C160.062 367.255 160.702 365.975 162.222 365.975C163.902 365.975 164.542 367.335 164.542 367.335H164.622C164.622 367.335 165.502 365.975 167.182 365.975C168.702 365.975 169.902 367.175 169.902 369.095V373.975H167.742V369.415C167.742 368.535 167.262 368.055 166.462 368.055C165.582 368.055 164.942 368.695 164.942 369.655V373.975H162.782V369.415C162.782 368.535 162.302 368.055 161.502 368.055C160.622 368.055 159.982 368.695 159.982 369.655V373.975H157.822ZM173.658 374.135C172.218 374.135 171.258 373.175 171.258 371.895C171.258 370.615 172.138 369.639 173.578 369.383L176.058 368.935C175.978 368.375 175.498 367.895 174.698 367.895C173.578 367.895 172.938 368.775 172.938 368.775L171.658 367.495C171.658 367.495 172.778 365.975 174.858 365.975C176.858 365.975 178.218 367.335 178.218 369.095V373.975C178.218 373.975 176.538 373.975 176.058 373.975V373.015H175.978C175.978 373.015 175.178 374.135 173.658 374.135ZM174.378 372.375C175.338 372.375 176.058 371.655 176.058 370.615V370.455L174.298 370.775C173.738 370.871 173.418 371.175 173.418 371.575C173.418 372.055 173.738 372.375 174.378 372.375ZM183.258 377.335C180.938 377.335 179.818 375.735 179.818 375.735L181.178 374.375C181.178 374.375 181.978 375.335 183.258 375.335C184.458 375.335 185.338 374.455 185.338 373.175V372.535H185.258C185.258 372.535 184.538 373.815 182.858 373.815C181.098 373.815 179.498 372.215 179.498 369.895C179.498 367.575 181.098 365.975 182.858 365.975C184.538 365.975 185.258 367.255 185.258 367.255H185.338V366.135H187.498V373.175C187.498 375.575 185.738 377.335 183.258 377.335ZM183.498 371.815C184.538 371.815 185.338 371.015 185.338 369.895C185.338 368.775 184.538 367.975 183.498 367.975C182.458 367.975 181.658 368.775 181.658 369.895C181.658 371.015 182.458 371.815 183.498 371.815ZM192.932 374.135C190.612 374.135 188.772 372.295 188.772 370.055C188.772 367.815 190.612 365.975 192.852 365.975C195.012 365.975 196.772 367.735 196.772 369.895C196.772 370.455 196.692 370.855 196.692 370.855H191.012C191.252 371.575 191.892 372.215 193.092 372.215C194.452 372.215 195.172 371.335 195.172 371.335L196.292 372.855C196.292 372.855 195.092 374.135 192.932 374.135ZM191.012 369.255H194.532C194.292 368.535 193.652 367.895 192.772 367.895C191.892 367.895 191.252 368.535 191.012 369.255ZM200.617 374.135C198.457 374.135 197.257 372.695 197.257 372.695L198.537 371.335C198.537 371.335 199.337 372.215 200.617 372.215C201.337 372.215 201.577 371.975 201.577 371.655C201.577 370.775 197.577 370.935 197.577 368.375C197.577 367.095 198.697 365.975 200.697 365.975C202.697 365.975 203.737 367.175 203.737 367.175L202.457 368.535C202.457 368.535 201.817 367.895 200.697 367.895C200.137 367.895 199.897 368.135 199.897 368.375C199.897 369.255 203.897 369.095 203.897 371.655C203.897 373.015 202.777 374.135 200.617 374.135ZM205.818 377.655L204.138 376.615C204.138 376.615 206.458 373.815 206.458 369.975C206.458 366.135 204.138 363.335 204.138 363.335L205.818 362.295C205.818 362.295 208.778 365.335 208.778 369.975C208.778 374.615 205.818 377.655 205.818 377.655Z" fill="#121516"/>
<rect x="1.5" y="1" width="326" height="403.975" stroke="#121516" stroke-width="2" stroke-dasharray="4 4"/>
<rect x="864" y="0.999985" width="212" height="406.311" fill="white"/>
<path d="M920.863 45.375C916.363 45.375 914.113 42.625 914.113 42.625L916.613 40.125C916.613 40.125 918.113 42 920.738 42C922.738 42 923.613 41.125 923.613 40C923.613 37 914.863 38.375 914.863 32.25C914.863 29.5 917.238 27.125 921.238 27.125C925.113 27.125 927.113 29.5 927.113 29.5L924.613 32C924.613 32 923.363 30.5 921.363 30.5C919.488 30.5 918.738 31.25 918.738 32.25C918.738 35.25 927.488 33.875 927.488 40C927.488 42.875 924.988 45.375 920.863 45.375ZM934.487 45.25C931.987 45.25 930.362 43.625 930.362 40.75V36.125H928.237V33H929.362C930.237 33 930.737 32.5 930.737 31.5V29.25H933.737V33H936.487V36.125H933.737V40.25C933.737 41.375 934.362 42 935.362 42C936.112 42 936.737 41.75 936.737 41.75V44.875C936.737 44.875 935.737 45.25 934.487 45.25ZM941.753 45.25C939.503 45.25 938.003 43.75 938.003 41.75C938.003 39.75 939.378 38.225 941.628 37.825L945.503 37.125C945.378 36.25 944.628 35.5 943.378 35.5C941.628 35.5 940.628 36.875 940.628 36.875L938.628 34.875C938.628 34.875 940.378 32.5 943.628 32.5C946.753 32.5 948.878 34.625 948.878 37.375V45C948.878 45 946.253 45 945.503 45V43.5H945.378C945.378 43.5 944.128 45.25 941.753 45.25ZM942.878 42.5C944.378 42.5 945.503 41.375 945.503 39.75V39.5L942.753 40C941.878 40.15 941.378 40.625 941.378 41.25C941.378 42 941.878 42.5 942.878 42.5ZM956.51 45.25C954.01 45.25 952.385 43.625 952.385 40.75V36.125H950.26V33H951.385C952.26 33 952.76 32.5 952.76 31.5V29.25H955.76V33H958.51V36.125H955.76V40.25C955.76 41.375 956.385 42 957.385 42C958.135 42 958.76 41.75 958.76 41.75V44.875C958.76 44.875 957.76 45.25 956.51 45.25ZM960.895 45V32.75H964.27V45H960.895ZM962.57 31.125C961.52 31.125 960.645 30.25 960.645 29.25C960.645 28.25 961.52 27.375 962.595 27.375C963.645 27.375 964.52 28.25 964.52 29.25C964.52 30.25 963.645 31.125 962.57 31.125ZM972.761 45.25C969.136 45.25 966.261 42.375 966.261 38.875C966.261 35.375 969.136 32.5 972.761 32.5C976.261 32.5 977.886 35 977.886 35L975.761 37.125C975.761 37.125 974.636 35.625 972.761 35.625C971.011 35.625 969.636 37 969.636 38.875C969.636 40.75 971.011 42.125 972.761 42.125C974.636 42.125 975.761 40.625 975.761 40.625L977.886 42.75C977.886 42.75 976.261 45.25 972.761 45.25ZM989.873 45.375C985.373 45.375 983.123 42.625 983.123 42.625L985.623 40.125C985.623 40.125 987.123 42 989.748 42C991.748 42 992.623 41.125 992.623 40C992.623 37 983.873 38.375 983.873 32.25C983.873 29.5 986.248 27.125 990.248 27.125C994.123 27.125 996.123 29.5 996.123 29.5L993.623 32C993.623 32 992.373 30.5 990.373 30.5C988.498 30.5 987.748 31.25 987.748 32.25C987.748 35.25 996.498 33.875 996.498 40C996.498 42.875 993.998 45.375 989.873 45.375ZM998.372 45V32.75H1001.75V45H998.372ZM1000.05 31.125C998.997 31.125 998.122 30.25 998.122 29.25C998.122 28.25 998.997 27.375 1000.07 27.375C1001.12 27.375 1002 28.25 1002 29.25C1002 30.25 1001.12 31.125 1000.05 31.125ZM1009.61 45.25C1007.11 45.25 1005.49 43.625 1005.49 40.75V36.125H1003.36V33H1004.49C1005.36 33 1005.86 32.5 1005.86 31.5V29.25H1008.86V33H1011.61V36.125H1008.86V40.25C1008.86 41.375 1009.49 42 1010.49 42C1011.24 42 1011.86 41.75 1011.86 41.75V44.875C1011.86 44.875 1010.86 45.25 1009.61 45.25ZM1019.5 45.25C1015.88 45.25 1013 42.375 1013 38.875C1013 35.375 1015.88 32.5 1019.38 32.5C1022.75 32.5 1025.5 35.25 1025.5 38.625C1025.5 39.5 1025.38 40.125 1025.38 40.125H1016.5C1016.88 41.25 1017.88 42.25 1019.75 42.25C1021.88 42.25 1023 40.875 1023 40.875L1024.75 43.25C1024.75 43.25 1022.88 45.25 1019.5 45.25ZM1016.5 37.625H1022C1021.63 36.5 1020.63 35.5 1019.25 35.5C1017.88 35.5 1016.88 36.5 1016.5 37.625Z" fill="#121516"/>
<path d="M994.167 106.186H970L963.958 100.144H945.833C942.51 100.144 939.822 102.863 939.822 106.186L939.792 142.436C939.792 145.758 942.51 148.477 945.833 148.477H994.167C997.49 148.477 1000.21 145.758 1000.21 142.436V112.227C1000.21 108.904 997.49 106.186 994.167 106.186ZM994.167 142.436H945.833V112.227H994.167V142.436Z" fill="#121516"/>
<path d="M932.634 189.311V178.111H935.034V182.511H939.834V178.111H942.234V189.311H939.834V184.751H935.034V189.311H932.634ZM946.878 189.311V180.351H943.678V178.111H952.478V180.351H949.278V189.311H946.878ZM953.916 189.311V178.111H956.076L959.916 182.911L963.756 178.111H965.916V189.311H963.516V181.951L959.916 186.431L956.316 181.951V189.311H953.916ZM968.471 189.311V178.111H970.871V187.071H976.071V189.311H968.471ZM980.63 189.311V183.631H979.43V181.631H980.63V180.831C980.63 178.991 981.67 177.951 983.27 177.951C983.99 177.951 984.55 178.191 984.55 178.191V180.191C984.55 180.191 984.23 180.031 983.83 180.031C983.19 180.031 982.79 180.431 982.79 181.151V181.631H987.83V189.311H985.67V183.631H982.79V189.311H980.63ZM986.742 180.431C986.07 180.431 985.51 179.871 985.51 179.231C985.51 178.591 986.07 178.031 986.758 178.031C987.43 178.031 987.99 178.591 987.99 179.231C987.99 179.871 987.43 180.431 986.742 180.431ZM989.753 189.311V178.111H991.913V189.311H989.753ZM997.44 189.471C995.12 189.471 993.28 187.631 993.28 185.391C993.28 183.151 995.12 181.311 997.36 181.311C999.52 181.311 1001.28 183.071 1001.28 185.231C1001.28 185.791 1001.2 186.191 1001.2 186.191H995.52C995.76 186.911 996.4 187.551 997.6 187.551C998.96 187.551 999.68 186.671 999.68 186.671L1000.8 188.191C1000.8 188.191 999.6 189.471 997.44 189.471ZM995.52 184.591H999.04C998.8 183.871 998.16 183.231 997.28 183.231C996.4 183.231 995.76 183.871 995.52 184.591ZM1005.12 189.471C1002.96 189.471 1001.76 188.031 1001.76 188.031L1003.04 186.671C1003.04 186.671 1003.84 187.551 1005.12 187.551C1005.84 187.551 1006.08 187.311 1006.08 186.991C1006.08 186.111 1002.08 186.271 1002.08 183.711C1002.08 182.431 1003.2 181.311 1005.2 181.311C1007.2 181.311 1008.24 182.511 1008.24 182.511L1006.96 183.871C1006.96 183.871 1006.32 183.231 1005.2 183.231C1004.64 183.231 1004.4 183.471 1004.4 183.711C1004.4 184.591 1008.4 184.431 1008.4 186.991C1008.4 188.351 1007.28 189.471 1005.12 189.471Z" fill="#121516"/>
<path d="M994.167 273.186H970L963.958 267.144H945.833C942.51 267.144 939.822 269.863 939.822 273.186L939.792 309.436C939.792 312.758 942.51 315.477 945.833 315.477H994.167C997.49 315.477 1000.21 312.758 1000.21 309.436V279.227C1000.21 275.904 997.49 273.186 994.167 273.186ZM994.167 309.436H945.833V279.227H994.167V309.436Z" fill="#121516"/>
<path d="M929.154 356.551C926.274 356.551 924.834 354.791 924.834 354.791L926.434 353.191C926.434 353.191 927.394 354.391 929.074 354.391C930.354 354.391 930.914 353.831 930.914 353.111C930.914 351.191 925.314 352.071 925.314 348.151C925.314 346.391 926.834 344.871 929.394 344.871C931.874 344.871 933.154 346.391 933.154 346.391L931.554 347.991C931.554 347.991 930.754 347.031 929.474 347.031C928.274 347.031 927.794 347.511 927.794 348.151C927.794 350.071 933.394 349.191 933.394 353.111C933.394 354.951 931.794 356.551 929.154 356.551ZM937.873 356.471C936.273 356.471 935.233 355.431 935.233 353.591V350.631H933.873V348.631H934.593C935.153 348.631 935.473 348.311 935.473 347.671V346.231H937.393V348.631H939.153V350.631H937.393V353.271C937.393 353.991 937.793 354.391 938.433 354.391C938.913 354.391 939.313 354.231 939.313 354.231V356.231C939.313 356.231 938.673 356.471 937.873 356.471ZM942.523 356.471C941.083 356.471 940.123 355.511 940.123 354.231C940.123 352.951 941.003 351.975 942.443 351.719L944.923 351.271C944.843 350.711 944.363 350.231 943.563 350.231C942.443 350.231 941.803 351.111 941.803 351.111L940.523 349.831C940.523 349.831 941.643 348.311 943.723 348.311C945.723 348.311 947.083 349.671 947.083 351.431V356.311C947.083 356.311 945.403 356.311 944.923 356.311V355.351H944.843C944.843 355.351 944.043 356.471 942.523 356.471ZM943.243 354.711C944.203 354.711 944.923 353.991 944.923 352.951V352.791L943.163 353.111C942.603 353.207 942.283 353.511 942.283 353.911C942.283 354.391 942.603 354.711 943.243 354.711ZM951.967 356.471C950.367 356.471 949.327 355.431 949.327 353.591V350.631H947.967V348.631H948.687C949.247 348.631 949.567 348.311 949.567 347.671V346.231H951.487V348.631H953.247V350.631H951.487V353.271C951.487 353.991 951.887 354.391 952.527 354.391C953.007 354.391 953.407 354.231 953.407 354.231V356.231C953.407 356.231 952.767 356.471 951.967 356.471ZM954.774 356.311V348.471H956.934V356.311H954.774ZM955.846 347.431C955.174 347.431 954.614 346.871 954.614 346.231C954.614 345.591 955.174 345.031 955.862 345.031C956.534 345.031 957.094 345.591 957.094 346.231C957.094 346.871 956.534 347.431 955.846 347.431ZM962.368 356.471C960.048 356.471 958.208 354.631 958.208 352.391C958.208 350.151 960.048 348.311 962.368 348.311C964.608 348.311 965.648 349.911 965.648 349.911L964.288 351.271C964.288 351.271 963.568 350.311 962.368 350.311C961.248 350.311 960.368 351.191 960.368 352.391C960.368 353.591 961.248 354.471 962.368 354.471C963.568 354.471 964.288 353.511 964.288 353.511L965.648 354.871C965.648 354.871 964.608 356.471 962.368 356.471ZM968.276 356.311L972.596 345.111H975.316L979.636 356.311H977.076L976.116 353.751H971.796L970.836 356.311H968.276ZM972.596 351.591H975.316L973.988 347.911H973.924L972.596 351.591ZM982.991 356.471C980.831 356.471 979.631 355.031 979.631 355.031L980.911 353.671C980.911 353.671 981.711 354.551 982.991 354.551C983.711 354.551 983.951 354.311 983.951 353.991C983.951 353.111 979.951 353.271 979.951 350.711C979.951 349.431 981.071 348.311 983.071 348.311C985.071 348.311 986.111 349.511 986.111 349.511L984.831 350.871C984.831 350.871 984.191 350.231 983.071 350.231C982.511 350.231 982.271 350.471 982.271 350.711C982.271 351.591 986.271 351.431 986.271 353.991C986.271 355.351 985.151 356.471 982.991 356.471ZM989.952 356.471C987.792 356.471 986.592 355.031 986.592 355.031L987.872 353.671C987.872 353.671 988.672 354.551 989.952 354.551C990.672 354.551 990.912 354.311 990.912 353.991C990.912 353.111 986.912 353.271 986.912 350.711C986.912 349.431 988.032 348.311 990.032 348.311C992.032 348.311 993.072 349.511 993.072 349.511L991.792 350.871C991.792 350.871 991.152 350.231 990.032 350.231C989.472 350.231 989.232 350.471 989.232 350.711C989.232 351.591 993.232 351.431 993.232 353.991C993.232 355.351 992.112 356.471 989.952 356.471ZM998.034 356.471C995.714 356.471 993.874 354.631 993.874 352.391C993.874 350.151 995.714 348.311 997.954 348.311C1000.11 348.311 1001.87 350.071 1001.87 352.231C1001.87 352.791 1001.79 353.191 1001.79 353.191H996.114C996.354 353.911 996.994 354.551 998.194 354.551C999.554 354.551 1000.27 353.671 1000.27 353.671L1001.39 355.191C1001.39 355.191 1000.19 356.471 998.034 356.471ZM996.114 351.591H999.634C999.394 350.871 998.754 350.231 997.874 350.231C996.994 350.231 996.354 350.871 996.114 351.591ZM1006.44 356.471C1004.84 356.471 1003.8 355.431 1003.8 353.591V350.631H1002.44V348.631H1003.16C1003.72 348.631 1004.04 348.311 1004.04 347.671V346.231H1005.96V348.631H1007.72V350.631H1005.96V353.271C1005.96 353.991 1006.36 354.391 1007 354.391C1007.48 354.391 1007.88 354.231 1007.88 354.231V356.231C1007.88 356.231 1007.24 356.471 1006.44 356.471ZM1011.81 356.471C1009.65 356.471 1008.45 355.031 1008.45 355.031L1009.73 353.671C1009.73 353.671 1010.53 354.551 1011.81 354.551C1012.53 354.551 1012.77 354.311 1012.77 353.991C1012.77 353.111 1008.77 353.271 1008.77 350.711C1008.77 349.431 1009.89 348.311 1011.89 348.311C1013.89 348.311 1014.93 349.511 1014.93 349.511L1013.65 350.871C1013.65 350.871 1013.01 350.231 1011.89 350.231C1011.33 350.231 1011.09 350.471 1011.09 350.711C1011.09 351.591 1015.09 351.431 1015.09 353.991C1015.09 355.351 1013.97 356.471 1011.81 356.471ZM928.68 379.991C928.68 379.991 925.72 376.951 925.72 372.311C925.72 367.671 928.68 364.631 928.68 364.631L930.36 365.671C930.36 365.671 928.04 368.471 928.04 372.311C928.04 376.151 930.36 378.951 930.36 378.951L928.68 379.991ZM934.922 376.471C932.602 376.471 930.762 374.631 930.762 372.391C930.762 370.151 932.602 368.311 934.842 368.311C937.002 368.311 938.762 370.071 938.762 372.231C938.762 372.791 938.682 373.191 938.682 373.191H933.002C933.242 373.911 933.882 374.551 935.082 374.551C936.442 374.551 937.162 373.671 937.162 373.671L938.282 375.191C938.282 375.191 937.082 376.471 934.922 376.471ZM933.002 371.591H936.522C936.282 370.871 935.642 370.231 934.762 370.231C933.882 370.231 933.242 370.871 933.002 371.591ZM940.927 376.471C940.207 376.471 939.647 375.911 939.647 375.191C939.647 374.471 940.207 373.911 940.927 373.911C941.647 373.911 942.207 374.471 942.207 375.191C942.207 375.911 941.647 376.471 940.927 376.471ZM946.85 379.671C944.53 379.671 943.41 378.071 943.41 378.071L944.77 376.711C944.77 376.711 945.57 377.671 946.85 377.671C948.05 377.671 948.93 376.791 948.93 375.511V374.871H948.85C948.85 374.871 948.13 376.151 946.45 376.151C944.69 376.151 943.09 374.551 943.09 372.231C943.09 369.911 944.69 368.311 946.45 368.311C948.13 368.311 948.85 369.591 948.85 369.591H948.93V368.471H951.09V375.511C951.09 377.911 949.33 379.671 946.85 379.671ZM947.09 374.151C948.13 374.151 948.93 373.351 948.93 372.231C948.93 371.111 948.13 370.311 947.09 370.311C946.05 370.311 945.25 371.111 945.25 372.231C945.25 373.351 946.05 374.151 947.09 374.151ZM953.724 376.471C953.004 376.471 952.444 375.911 952.444 375.191C952.444 374.471 953.004 373.911 953.724 373.911C954.444 373.911 955.004 374.471 955.004 375.191C955.004 375.911 954.444 376.471 953.724 376.471ZM959.407 376.311V368.471H961.567V376.311H959.407ZM960.479 367.431C959.807 367.431 959.247 366.871 959.247 366.231C959.247 365.591 959.807 365.031 960.495 365.031C961.167 365.031 961.727 365.591 961.727 366.231C961.727 366.871 961.167 367.431 960.479 367.431ZM963.322 376.311V368.471H965.482V369.591H965.562C965.562 369.591 966.202 368.311 967.722 368.311C969.402 368.311 970.042 369.671 970.042 369.671H970.122C970.122 369.671 971.002 368.311 972.682 368.311C974.202 368.311 975.402 369.511 975.402 371.431V376.311H973.242V371.751C973.242 370.871 972.762 370.391 971.962 370.391C971.082 370.391 970.442 371.031 970.442 371.991V376.311H968.282V371.751C968.282 370.871 967.802 370.391 967.002 370.391C966.122 370.391 965.482 371.031 965.482 371.991V376.311H963.322ZM979.158 376.471C977.718 376.471 976.758 375.511 976.758 374.231C976.758 372.951 977.638 371.975 979.078 371.719L981.558 371.271C981.478 370.711 980.998 370.231 980.198 370.231C979.078 370.231 978.438 371.111 978.438 371.111L977.158 369.831C977.158 369.831 978.278 368.311 980.358 368.311C982.358 368.311 983.718 369.671 983.718 371.431V376.311C983.718 376.311 982.038 376.311 981.558 376.311V375.351H981.478C981.478 375.351 980.678 376.471 979.158 376.471ZM979.878 374.711C980.838 374.711 981.558 373.991 981.558 372.951V372.791L979.798 373.111C979.238 373.207 978.918 373.511 978.918 373.911C978.918 374.391 979.238 374.711 979.878 374.711ZM988.758 379.671C986.438 379.671 985.318 378.071 985.318 378.071L986.678 376.711C986.678 376.711 987.478 377.671 988.758 377.671C989.958 377.671 990.838 376.791 990.838 375.511V374.871H990.758C990.758 374.871 990.038 376.151 988.358 376.151C986.598 376.151 984.998 374.551 984.998 372.231C984.998 369.911 986.598 368.311 988.358 368.311C990.038 368.311 990.758 369.591 990.758 369.591H990.838V368.471H992.998V375.511C992.998 377.911 991.238 379.671 988.758 379.671ZM988.998 374.151C990.038 374.151 990.838 373.351 990.838 372.231C990.838 371.111 990.038 370.311 988.998 370.311C987.958 370.311 987.158 371.111 987.158 372.231C987.158 373.351 987.958 374.151 988.998 374.151ZM998.432 376.471C996.112 376.471 994.272 374.631 994.272 372.391C994.272 370.151 996.112 368.311 998.352 368.311C1000.51 368.311 1002.27 370.071 1002.27 372.231C1002.27 372.791 1002.19 373.191 1002.19 373.191H996.512C996.752 373.911 997.392 374.551 998.592 374.551C999.952 374.551 1000.67 373.671 1000.67 373.671L1001.79 375.191C1001.79 375.191 1000.59 376.471 998.432 376.471ZM996.512 371.591H1000.03C999.792 370.871 999.152 370.231 998.272 370.231C997.392 370.231 996.752 370.871 996.512 371.591ZM1006.12 376.471C1003.96 376.471 1002.76 375.031 1002.76 375.031L1004.04 373.671C1004.04 373.671 1004.84 374.551 1006.12 374.551C1006.84 374.551 1007.08 374.311 1007.08 373.991C1007.08 373.111 1003.08 373.271 1003.08 370.711C1003.08 369.431 1004.2 368.311 1006.2 368.311C1008.2 368.311 1009.24 369.511 1009.24 369.511L1007.96 370.871C1007.96 370.871 1007.32 370.231 1006.2 370.231C1005.64 370.231 1005.4 370.471 1005.4 370.711C1005.4 371.591 1009.4 371.431 1009.4 373.991C1009.4 375.351 1008.28 376.471 1006.12 376.471ZM1011.32 379.991L1009.64 378.951C1009.64 378.951 1011.96 376.151 1011.96 372.311C1011.96 368.471 1009.64 365.671 1009.64 365.671L1011.32 364.631C1011.32 364.631 1014.28 367.671 1014.28 372.311C1014.28 376.951 1011.32 379.991 1011.32 379.991Z" fill="#121516"/>
<rect x="864" y="0.999985" width="212" height="406.311" stroke="#121516" stroke-width="2" stroke-dasharray="4 4"/>
<path d="M357.522 284.243C357.38 285.06 357.927 285.836 358.743 285.978L372.044 288.288C372.86 288.43 373.637 287.883 373.779 287.067C373.921 286.251 373.374 285.474 372.558 285.332L360.735 283.279L362.788 271.456C362.93 270.64 362.383 269.863 361.567 269.721C360.751 269.579 359.974 270.126 359.832 270.942L357.522 284.243ZM596 188L596 186.5L596 188ZM359 284.5C359.864 285.727 359.864 285.726 359.865 285.726C359.866 285.725 359.867 285.724 359.869 285.723C359.873 285.72 359.879 285.716 359.887 285.71C359.903 285.699 359.927 285.682 359.96 285.659C360.025 285.613 360.123 285.545 360.253 285.454C360.513 285.273 360.902 285.004 361.413 284.652C362.437 283.949 363.953 282.916 365.919 281.6C369.851 278.969 375.584 275.207 382.776 270.692C397.161 261.662 417.38 249.622 440.713 237.583C487.444 213.472 546.419 189.5 596 189.5L596 186.5C545.649 186.5 486.123 210.778 439.338 234.917C415.912 247.003 395.618 259.088 381.181 268.151C373.961 272.683 368.204 276.461 364.251 279.107C362.274 280.43 360.747 281.47 359.714 282.18C359.197 282.535 358.804 282.808 358.539 282.992C358.407 283.084 358.307 283.154 358.24 283.201C358.206 283.225 358.18 283.243 358.163 283.255C358.155 283.261 358.148 283.265 358.144 283.268C358.141 283.27 358.14 283.271 358.138 283.272C358.137 283.273 358.136 283.273 359 284.5ZM596 189.5C645.581 189.5 704.556 213.472 751.287 237.583C774.62 249.622 794.839 261.662 809.224 270.692C816.416 275.207 822.149 278.969 826.081 281.6C828.047 282.916 829.563 283.949 830.587 284.652C831.098 285.004 831.487 285.273 831.747 285.454C831.877 285.545 831.975 285.613 832.04 285.659C832.073 285.682 832.097 285.699 832.113 285.71C832.121 285.716 832.127 285.72 832.131 285.723C832.133 285.724 832.134 285.725 832.135 285.726C832.136 285.726 832.137 285.727 833 284.5C833.864 283.273 833.863 283.273 833.862 283.272C833.86 283.271 833.859 283.27 833.856 283.268C833.852 283.265 833.845 283.261 833.837 283.255C833.82 283.243 833.794 283.225 833.76 283.201C833.693 283.154 833.593 283.084 833.461 282.992C833.196 282.808 832.803 282.535 832.286 282.18C831.253 281.47 829.726 280.43 827.749 279.107C823.796 276.461 818.039 272.683 810.819 268.151C796.382 259.088 776.088 247.003 752.662 234.917C705.877 210.778 646.351 186.5 596 186.5L596 189.5Z" fill="#121516"/>
<path d="M357.522 267.243C357.38 268.06 357.927 268.836 358.743 268.978L372.044 271.288C372.86 271.43 373.637 270.883 373.779 270.067C373.921 269.251 373.374 268.474 372.558 268.332L360.735 266.279L362.788 254.456C362.93 253.64 362.383 252.863 361.567 252.721C360.751 252.579 359.974 253.126 359.832 253.942L357.522 267.243ZM596 171L596 169.5L596 171ZM359 267.5C359.864 268.727 359.864 268.726 359.865 268.726C359.866 268.725 359.867 268.724 359.869 268.723C359.873 268.72 359.879 268.716 359.887 268.71C359.903 268.699 359.927 268.682 359.96 268.659C360.025 268.613 360.123 268.545 360.253 268.454C360.513 268.273 360.902 268.004 361.413 267.652C362.437 266.949 363.953 265.916 365.919 264.6C369.851 261.969 375.584 258.207 382.776 253.692C397.161 244.662 417.38 232.622 440.713 220.583C487.444 196.472 546.419 172.5 596 172.5L596 169.5C545.649 169.5 486.123 193.778 439.338 217.917C415.912 230.003 395.618 242.088 381.181 251.151C373.961 255.683 368.204 259.461 364.251 262.107C362.274 263.43 360.747 264.47 359.714 265.18C359.197 265.535 358.804 265.808 358.539 265.992C358.407 266.084 358.307 266.154 358.24 266.201C358.206 266.225 358.18 266.243 358.163 266.255C358.155 266.261 358.148 266.265 358.144 266.268C358.141 266.27 358.14 266.271 358.138 266.272C358.137 266.273 358.136 266.273 359 267.5ZM596 172.5C645.581 172.5 704.556 196.472 751.287 220.583C774.62 232.622 794.839 244.662 809.224 253.692C816.416 258.207 822.149 261.969 826.081 264.6C828.047 265.916 829.563 266.949 830.587 267.652C831.098 268.004 831.487 268.273 831.747 268.454C831.877 268.545 831.975 268.613 832.04 268.659C832.073 268.682 832.097 268.699 832.113 268.71C832.121 268.716 832.127 268.72 832.131 268.723C832.133 268.724 832.134 268.725 832.135 268.726C832.136 268.726 832.137 268.727 833 267.5C833.864 266.273 833.863 266.273 833.862 266.272C833.86 266.271 833.859 266.27 833.856 266.268C833.852 266.265 833.845 266.261 833.837 266.255C833.82 266.243 833.794 266.225 833.76 266.201C833.693 266.154 833.593 266.084 833.461 265.992C833.196 265.808 832.803 265.535 832.286 265.18C831.253 264.47 829.726 263.43 827.749 262.107C823.796 259.461 818.039 255.683 810.819 251.151C796.382 242.088 776.088 230.003 752.662 217.917C705.877 193.778 646.351 169.5 596 169.5L596 172.5Z" fill="white"/>
<path d="M495.058 274.005C494.68 274.714 493.783 274.953 493.1 274.531V274.531C492.628 274.239 492.375 273.694 492.456 273.145L494.109 261.968H488.107C487.071 261.968 487.089 261.358 487.428 260.71C487.768 260.061 487.517 260.557 487.553 260.481C489.741 256.357 492.974 250.311 497.238 242.31C497.615 241.601 498.514 241.358 499.197 241.78V241.78C499.669 242.072 499.922 242.617 499.841 243.166L498.188 254.343H504.19C505.066 254.343 505.191 254.972 505.03 255.315L504.905 255.601C499.675 265.356 496.398 271.493 495.058 274.005Z" fill="#121516"/>
<path d="M527.971 270.374C522.918 270.374 520.11 267.006 520.11 267.006L523.105 263.824C523.105 263.824 524.976 265.883 527.971 265.883C529.655 265.883 530.216 265.321 530.216 264.573C530.216 262.514 520.859 262.888 520.859 256.9C520.859 253.905 523.479 251.285 528.158 251.285C532.836 251.285 535.269 254.092 535.269 254.092L532.275 257.274C532.275 257.274 530.778 255.777 528.158 255.777C526.848 255.777 526.286 256.338 526.286 256.9C526.286 258.958 535.644 258.584 535.644 264.573C535.644 267.754 533.024 270.374 527.971 270.374ZM545.94 270.374C542.197 270.374 539.764 267.941 539.764 263.637V256.712H536.582V252.034H538.267C539.577 252.034 540.325 251.285 540.325 249.788V246.419H544.817V252.034H548.934V256.712H544.817V262.888C544.817 264.573 545.753 265.508 547.25 265.508C548.373 265.508 549.308 265.134 549.308 265.134V269.813C549.308 269.813 547.811 270.374 545.94 270.374ZM556.818 270.374C553.449 270.374 551.203 268.129 551.203 265.134C551.203 262.14 553.262 259.857 556.631 259.258L562.432 258.21C562.245 256.9 561.122 255.777 559.251 255.777C556.631 255.777 555.133 257.835 555.133 257.835L552.139 254.841C552.139 254.841 554.759 251.285 559.625 251.285C564.304 251.285 567.485 254.467 567.485 258.584V270C567.485 270 563.555 270 562.432 270V267.754H562.245C562.245 267.754 560.374 270.374 556.818 270.374ZM558.502 266.257C560.748 266.257 562.432 264.573 562.432 262.14V261.765L558.315 262.514C557.005 262.739 556.256 263.45 556.256 264.386C556.256 265.508 557.005 266.257 558.502 266.257ZM578.912 270.374C575.169 270.374 572.736 267.941 572.736 263.637V256.712H569.554V252.034H571.238C572.548 252.034 573.297 251.285 573.297 249.788V246.419H577.789V252.034H581.906V256.712H577.789V262.888C577.789 264.573 578.724 265.508 580.222 265.508C581.344 265.508 582.28 265.134 582.28 265.134V269.813C582.28 269.813 580.783 270.374 578.912 270.374ZM585.476 270V251.659H590.529V270H585.476ZM587.984 249.227C586.412 249.227 585.102 247.916 585.102 246.419C585.102 244.922 586.412 243.612 588.022 243.612C589.594 243.612 590.904 244.922 590.904 246.419C590.904 247.916 589.594 249.227 587.984 249.227ZM603.242 270.374C597.815 270.374 593.511 266.07 593.511 260.83C593.511 255.59 597.815 251.285 603.242 251.285C608.482 251.285 610.915 255.028 610.915 255.028L607.734 258.21C607.734 258.21 606.05 255.964 603.242 255.964C600.622 255.964 598.564 258.022 598.564 260.83C598.564 263.637 600.622 265.696 603.242 265.696C606.05 265.696 607.734 263.45 607.734 263.45L610.915 266.631C610.915 266.631 608.482 270.374 603.242 270.374ZM619.32 270.374C614.267 270.374 611.459 267.006 611.459 267.006L614.454 263.824C614.454 263.824 616.325 265.883 619.32 265.883C621.004 265.883 621.565 265.321 621.565 264.573C621.565 262.514 612.208 262.888 612.208 256.9C612.208 253.905 614.828 251.285 619.507 251.285C624.185 251.285 626.618 254.092 626.618 254.092L623.624 257.274C623.624 257.274 622.127 255.777 619.507 255.777C618.197 255.777 617.635 256.338 617.635 256.9C617.635 258.958 626.993 258.584 626.993 264.573C626.993 267.754 624.373 270.374 619.32 270.374ZM629.803 270V243.799H634.856V254.28H635.043C635.043 254.28 636.914 251.285 640.47 251.285C644.213 251.285 647.208 254.28 647.208 258.958V270H642.155V259.707C642.155 257.461 640.845 256.151 638.786 256.151C636.54 256.151 634.856 257.835 634.856 260.268V270H629.803ZM655.989 270.374C652.62 270.374 650.374 268.129 650.374 265.134C650.374 262.14 652.433 259.857 655.802 259.258L661.603 258.21C661.416 256.9 660.293 255.777 658.422 255.777C655.802 255.777 654.305 257.835 654.305 257.835L651.31 254.841C651.31 254.841 653.93 251.285 658.796 251.285C663.475 251.285 666.656 254.467 666.656 258.584V270C666.656 270 662.726 270 661.603 270V267.754H661.416C661.416 267.754 659.545 270.374 655.989 270.374ZM657.673 266.257C659.919 266.257 661.603 264.573 661.603 262.14V261.765L657.486 262.514C656.176 262.739 655.428 263.45 655.428 264.386C655.428 265.508 656.176 266.257 657.673 266.257ZM670.775 277.86V251.659H675.828V254.28H676.015C676.015 254.28 677.887 251.285 681.817 251.285C686.121 251.285 690.051 255.215 690.051 260.83C690.051 266.444 686.121 270.374 681.817 270.374C677.887 270.374 676.015 267.38 676.015 267.38H675.828V277.86H670.775ZM680.32 265.696C682.94 265.696 684.998 263.637 684.998 260.83C684.998 258.022 682.94 255.964 680.32 255.964C677.7 255.964 675.641 258.022 675.641 260.83C675.641 263.637 677.7 265.696 680.32 265.696ZM701.663 270.374C696.236 270.374 691.932 266.07 691.932 260.83C691.932 255.59 696.236 251.285 701.476 251.285C706.529 251.285 710.647 255.402 710.647 260.455C710.647 261.765 710.459 262.701 710.459 262.701H697.172C697.733 264.386 699.231 265.883 702.038 265.883C705.219 265.883 706.904 263.824 706.904 263.824L709.524 267.38C709.524 267.38 706.716 270.374 701.663 270.374ZM697.172 258.958H705.406C704.845 257.274 703.348 255.777 701.289 255.777C699.231 255.777 697.733 257.274 697.172 258.958Z" fill="#121516"/>
<path d="M495.058 141.005C494.68 141.714 493.783 141.953 493.1 141.531V141.531C492.628 141.239 492.375 140.694 492.456 140.145L494.109 128.968H488.107C487.071 128.968 487.089 128.358 487.428 127.71C487.768 127.061 487.517 127.557 487.553 127.481C489.741 123.357 492.974 117.311 497.238 109.31C497.615 108.601 498.514 108.358 499.197 108.78V108.78C499.669 109.072 499.922 109.617 499.841 110.166L498.188 121.343H504.19C505.066 121.343 505.191 121.972 505.03 122.315L504.905 122.601C499.675 132.356 496.398 138.493 495.058 141.005Z" fill="white"/>
<path d="M527.971 137.374C522.918 137.374 520.11 134.006 520.11 134.006L523.105 130.824C523.105 130.824 524.976 132.883 527.971 132.883C529.655 132.883 530.216 132.321 530.216 131.573C530.216 129.514 520.859 129.888 520.859 123.9C520.859 120.905 523.479 118.285 528.158 118.285C532.836 118.285 535.269 121.092 535.269 121.092L532.275 124.274C532.275 124.274 530.778 122.777 528.158 122.777C526.848 122.777 526.286 123.338 526.286 123.9C526.286 125.958 535.644 125.584 535.644 131.573C535.644 134.754 533.024 137.374 527.971 137.374ZM545.94 137.374C542.197 137.374 539.764 134.941 539.764 130.637V123.712H536.582V119.034H538.267C539.577 119.034 540.325 118.285 540.325 116.788V113.419H544.817V119.034H548.934V123.712H544.817V129.888C544.817 131.573 545.753 132.508 547.25 132.508C548.373 132.508 549.308 132.134 549.308 132.134V136.813C549.308 136.813 547.811 137.374 545.94 137.374ZM556.818 137.374C553.449 137.374 551.203 135.129 551.203 132.134C551.203 129.14 553.262 126.857 556.631 126.258L562.432 125.21C562.245 123.9 561.122 122.777 559.251 122.777C556.631 122.777 555.133 124.835 555.133 124.835L552.139 121.841C552.139 121.841 554.759 118.285 559.625 118.285C564.304 118.285 567.485 121.467 567.485 125.584V137C567.485 137 563.555 137 562.432 137V134.754H562.245C562.245 134.754 560.374 137.374 556.818 137.374ZM558.502 133.257C560.748 133.257 562.432 131.573 562.432 129.14V128.765L558.315 129.514C557.005 129.739 556.256 130.45 556.256 131.386C556.256 132.508 557.005 133.257 558.502 133.257ZM578.912 137.374C575.169 137.374 572.736 134.941 572.736 130.637V123.712H569.554V119.034H571.238C572.548 119.034 573.297 118.285 573.297 116.788V113.419H577.789V119.034H581.906V123.712H577.789V129.888C577.789 131.573 578.724 132.508 580.222 132.508C581.344 132.508 582.28 132.134 582.28 132.134V136.813C582.28 136.813 580.783 137.374 578.912 137.374ZM585.476 137V118.659H590.529V137H585.476ZM587.984 116.227C586.412 116.227 585.102 114.916 585.102 113.419C585.102 111.922 586.412 110.612 588.022 110.612C589.594 110.612 590.904 111.922 590.904 113.419C590.904 114.916 589.594 116.227 587.984 116.227ZM603.242 137.374C597.815 137.374 593.511 133.07 593.511 127.83C593.511 122.59 597.815 118.285 603.242 118.285C608.482 118.285 610.915 122.028 610.915 122.028L607.734 125.21C607.734 125.21 606.05 122.964 603.242 122.964C600.622 122.964 598.564 125.022 598.564 127.83C598.564 130.637 600.622 132.696 603.242 132.696C606.05 132.696 607.734 130.45 607.734 130.45L610.915 133.631C610.915 133.631 608.482 137.374 603.242 137.374ZM619.32 137.374C614.267 137.374 611.459 134.006 611.459 134.006L614.454 130.824C614.454 130.824 616.325 132.883 619.32 132.883C621.004 132.883 621.565 132.321 621.565 131.573C621.565 129.514 612.208 129.888 612.208 123.9C612.208 120.905 614.828 118.285 619.507 118.285C624.185 118.285 626.618 121.092 626.618 121.092L623.624 124.274C623.624 124.274 622.127 122.777 619.507 122.777C618.197 122.777 617.635 123.338 617.635 123.9C617.635 125.958 626.993 125.584 626.993 131.573C626.993 134.754 624.373 137.374 619.32 137.374ZM629.803 137V110.799H634.856V121.28H635.043C635.043 121.28 636.914 118.285 640.47 118.285C644.213 118.285 647.208 121.28 647.208 125.958V137H642.155V126.707C642.155 124.461 640.845 123.151 638.786 123.151C636.54 123.151 634.856 124.835 634.856 127.268V137H629.803ZM655.989 137.374C652.62 137.374 650.374 135.129 650.374 132.134C650.374 129.14 652.433 126.857 655.802 126.258L661.603 125.21C661.416 123.9 660.293 122.777 658.422 122.777C655.802 122.777 654.305 124.835 654.305 124.835L651.31 121.841C651.31 121.841 653.93 118.285 658.796 118.285C663.475 118.285 666.656 121.467 666.656 125.584V137C666.656 137 662.726 137 661.603 137V134.754H661.416C661.416 134.754 659.545 137.374 655.989 137.374ZM657.673 133.257C659.919 133.257 661.603 131.573 661.603 129.14V128.765L657.486 129.514C656.176 129.739 655.428 130.45 655.428 131.386C655.428 132.508 656.176 133.257 657.673 133.257ZM670.775 144.86V118.659H675.828V121.28H676.015C676.015 121.28 677.887 118.285 681.817 118.285C686.121 118.285 690.051 122.215 690.051 127.83C690.051 133.444 686.121 137.374 681.817 137.374C677.887 137.374 676.015 134.38 676.015 134.38H675.828V144.86H670.775ZM680.32 132.696C682.94 132.696 684.998 130.637 684.998 127.83C684.998 125.022 682.94 122.964 680.32 122.964C677.7 122.964 675.641 125.022 675.641 127.83C675.641 130.637 677.7 132.696 680.32 132.696ZM701.663 137.374C696.236 137.374 691.932 133.07 691.932 127.83C691.932 122.59 696.236 118.285 701.476 118.285C706.529 118.285 710.647 122.402 710.647 127.455C710.647 128.765 710.459 129.701 710.459 129.701H697.172C697.733 131.386 699.231 132.883 702.038 132.883C705.219 132.883 706.904 130.824 706.904 130.824L709.524 134.38C709.524 134.38 706.716 137.374 701.663 137.374ZM697.172 125.958H705.406C704.845 124.274 703.348 122.777 701.289 122.777C699.231 122.777 697.733 124.274 697.172 125.958Z" fill="white"/>
</g>
<defs>
<clipPath id="clip0_1_698">
<rect width="1077" height="408" fill="white"/>
</clipPath>
</defs>
</svg>
