<svg fill="none" height="118" viewBox="0 0 747 118" width="747" xmlns="http://www.w3.org/2000/svg"><path d="m51.4809 105.816c-1.212 2.271-4.085 3.037-6.2749 1.683-1.5136-.936-2.3254-2.683-2.065-4.443l5.3001-35.8338h-19.2434c-3.3229 0-3.2656-1.9556-2.1771-4.0333 1.0885-2.0778.2865-.4889.401-.7334 7.0128-13.221 17.3786-32.6045 31.0483-58.25496 1.2109-2.27225 4.0919-3.05416 6.2817-1.6999 1.5138.93613 2.3256 2.68298 2.0652 4.44364l-5.3001 35.83352h19.2435c2.8072 0 3.2083 2.0166 2.6927 3.1166l-.4011.9167c-16.7662 31.2743-27.2742 50.9508-31.5709 59.0049z" fill="#ffc803"/><path d="m157 93.2c-16.2 0-25.2-10.8-25.2-10.8l9.6-10.2s6 6.6 15.6 6.6c5.4 0 7.2-1.8 7.2-4.2 0-6.6-30-5.4-30-24.6 0-9.6 8.4-18 23.4-18s22.8 9 22.8 9l-9.6 10.2s-4.8-4.8-13.2-4.8c-4.2 0-6 1.8-6 3.6 0 6.6 30 5.4 30 24.6 0 10.2-8.4 18.6-24.6 18.6zm57.609 0c-12 0-19.8-7.8-19.8-21.6v-22.2h-10.2v-15h5.4c4.2 0 6.6-2.4 6.6-7.2v-10.8h14.4v18h13.2v15h-13.2v19.8c0 5.4 3 8.4 7.8 8.4 3.6 0 6.6-1.2 6.6-1.2v15s-4.8 1.8-10.8 1.8zm34.875 0c-10.8 0-18-7.2-18-16.8s6.6-16.92 17.4-18.84l18.6-3.36c-.6-4.2-4.2-7.8-10.2-7.8-8.4 0-13.2 6.6-13.2 6.6l-9.6-9.6s8.4-11.4 24-11.4c15 0 25.2 10.2 25.2 23.4v36.6s-12.6 0-16.2 0v-7.2h-.6s-6 8.4-17.4 8.4zm5.4-13.2c7.2 0 12.6-5.4 12.6-13.2v-1.2l-13.2 2.4c-4.2.72-6.6 3-6.6 6 0 3.6 2.4 6 7.2 6zm65.433 13.2c-12 0-19.8-7.8-19.8-21.6v-22.2h-10.2v-15h5.4c4.2 0 6.6-2.4 6.6-7.2v-10.8h14.4v18h13.2v15h-13.2v19.8c0 5.4 3 8.4 7.8 8.4 3.6 0 6.6-1.2 6.6-1.2v15s-4.8 1.8-10.8 1.8zm21.047-1.2v-58.8h16.2v58.8zm8.04-66.6c-5.04 0-9.24-4.2-9.24-9s4.2-9.00001 9.36-9.00001c5.04 0 9.24 4.20001 9.24 9.00001s-4.2 9-9.36 9zm48.918 67.8c-17.4 0-31.2-13.8-31.2-30.6s13.8-30.6 31.2-30.6c16.8 0 24.6 12 24.6 12l-10.2 10.2s-5.4-7.2-14.4-7.2c-8.4 0-15 6.6-15 15.6s6.6 15.6 15 15.6c9 0 14.4-7.2 14.4-7.2l10.2 10.2s-7.8 12-24.6 12zm51.544 0c-16.2 0-25.2-10.8-25.2-10.8l9.6-10.2s6 6.6 15.6 6.6c5.4 0 7.2-1.8 7.2-4.2 0-6.6-30-5.4-30-24.6 0-9.6 8.4-18 23.4-18s22.8 9 22.8 9l-9.6 10.2s-4.8-4.8-13.2-4.8c-4.2 0-6 1.8-6 3.6 0 6.6 30 5.4 30 24.6 0 10.2-8.4 18.6-24.6 18.6zm33.609-1.2v-84.00001h16.2v33.60001h.6s6-9.6 17.4-9.6c12 0 21.6 9.6 21.6 24.6v35.4h-16.2v-33c0-7.2-4.2-11.4-10.8-11.4-7.2 0-12.6 5.4-12.6 13.2v31.2zm83.953 1.2c-10.8 0-18-7.2-18-16.8s6.6-16.92 17.4-18.84l18.6-3.36c-.6-4.2-4.2-7.8-10.2-7.8-8.4 0-13.2 6.6-13.2 6.6l-9.6-9.6s8.4-11.4 24-11.4c15 0 25.2 10.2 25.2 23.4v36.6s-12.6 0-16.2 0v-7.2h-.6s-6 8.4-17.4 8.4zm5.4-13.2c7.2 0 12.6-5.4 12.6-13.2v-1.2l-13.2 2.4c-4.2.72-6.6 3-6.6 6 0 3.6 2.4 6 7.2 6zm42.005 37.2v-84h16.2v8.4h.6s6-9.6 18.6-9.6c13.8 0 26.4 12.6 26.4 30.6s-12.6 30.6-26.4 30.6c-12.6 0-18.6-9.6-18.6-9.6h-.6v33.6zm30.6-39c8.4 0 15-6.6 15-15.6s-6.6-15.6-15-15.6-15 6.6-15 15.6 6.6 15.6 15 15.6zm68.428 15c-17.4 0-31.2-13.8-31.2-30.6s13.8-30.6 30.6-30.6c16.2 0 29.4 13.2 29.4 29.4 0 4.2-.6 7.2-.6 7.2h-42.6c1.8 5.4 6.6 10.2 15.6 10.2 10.2 0 15.6-6.6 15.6-6.6l8.4 11.4s-9 9.6-25.2 9.6zm-14.4-36.6h26.4c-1.8-5.4-6.6-10.2-13.2-10.2s-11.4 4.8-13.2 10.2z" fill="#fff"/></svg>