<?xml version="1.0" standalone="no"?>
<!DOCTYPE svg PUBLIC "-//W3C//DTD SVG 20010904//EN"
 "http://www.w3.org/TR/2001/REC-SVG-20010904/DTD/svg10.dtd">
<svg version="1.0" xmlns="http://www.w3.org/2000/svg"
 width="700.000000pt" height="700.000000pt" viewBox="0 0 700.000000 700.000000"
 preserveAspectRatio="xMidYMid meet">
<metadata>
Created by potrace 1.14, written by Peter Selinger 2001-2017
</metadata>
<g transform="translate(0.000000,700.000000) scale(0.100000,-0.100000)"
fill="#000000" stroke="none">
<path d="M3968 6885 c-2 -2 -22 -5 -45 -9 -55 -7 -111 -36 -152 -78 -32 -32
-60 -80 -156 -263 -68 -128 -133 -252 -165 -310 -15 -27 -49 -90 -75 -140 -26
-49 -64 -121 -85 -160 -20 -38 -63 -119 -95 -180 -32 -60 -61 -114 -65 -120
-4 -5 -35 -64 -70 -130 -35 -66 -75 -142 -90 -170 -30 -55 -80 -149 -160 -300
-29 -55 -65 -122 -80 -150 -15 -27 -48 -89 -74 -138 -25 -48 -67 -126 -92
-175 -26 -48 -59 -109 -74 -137 -15 -27 -49 -90 -75 -140 -45 -85 -66 -124
-162 -305 -22 -41 -62 -115 -88 -165 -26 -49 -65 -124 -88 -165 -22 -41 -56
-106 -77 -145 -20 -38 -61 -115 -91 -170 -29 -55 -75 -140 -101 -190 -27 -49
-58 -110 -70 -135 -12 -25 -25 -47 -28 -50 -11 -9 -35 -104 -33 -130 2 -13 11
-36 21 -50 42 -56 23 -55 717 -57 352 -1 646 -2 653 -2 12 -1 11 -47 -3 -122
-2 -9 -7 -39 -11 -66 -3 -26 -8 -55 -9 -63 -2 -8 -6 -40 -10 -70 -4 -30 -9
-64 -11 -75 -2 -10 -6 -35 -9 -55 -11 -75 -56 -386 -60 -410 -8 -54 -17 -116
-20 -130 -2 -8 -6 -42 -10 -75 -3 -32 -8 -62 -10 -65 -1 -3 -6 -27 -9 -55 -7
-50 -43 -297 -50 -345 -3 -14 -7 -45 -10 -70 -3 -25 -8 -55 -10 -67 -3 -11 -7
-43 -11 -70 -4 -26 -9 -59 -11 -73 -8 -57 -16 -107 -19 -130 -2 -14 -6 -44
-10 -68 -4 -23 -8 -52 -10 -65 -8 -64 -18 -127 -25 -166 -18 -100 2 -188 60
-261 102 -129 311 -135 422 -12 19 21 67 101 108 177 40 77 81 154 90 170 9
17 40 75 70 130 29 55 65 123 80 150 26 48 71 132 166 310 24 44 66 125 95
180 28 55 55 105 59 110 4 6 50 91 103 190 115 219 230 432 267 500 15 28 48
88 72 135 25 47 60 112 78 145 69 127 110 204 160 300 29 55 79 147 110 205
32 58 81 150 110 205 29 55 65 123 80 150 47 86 94 173 220 410 234 438 234
436 217 494 -14 47 -33 68 -80 90 -36 17 -86 18 -679 17 l-640 -1 6 60 c3 33
7 69 10 80 4 23 14 83 22 140 7 51 24 163 29 196 3 14 7 41 9 60 3 19 9 63 15
99 5 36 13 85 16 110 3 25 8 56 10 70 2 14 7 43 10 65 6 45 16 111 21 139 2
10 6 44 10 75 3 31 8 58 9 61 2 3 6 30 10 60 7 60 13 101 20 140 2 14 7 45 10
70 5 39 16 111 40 275 3 22 8 47 10 55 2 8 7 42 10 75 4 33 8 67 10 75 2 8 7
38 11 65 3 28 8 59 10 70 2 11 7 43 10 70 3 28 7 56 10 63 5 17 16 104 18 151
4 80 -52 187 -123 234 -35 23 -153 61 -163 52z"/>
</g>
</svg>
